ISO-10303-21;
HEADER;
/* Generated by software containing ST-Developer
 * from STEP Tools, Inc. (www.steptools.com) 
 */

FILE_DESCRIPTION(
/* description */ (''),
/* implementation_level */ '2;1');

FILE_NAME(
/* name */ 'P2-top_pot.step',
/* time_stamp */ '2025-10-23T22:58:24+05:30',
/* author */ (''),
/* organization */ (''),
/* preprocessor_version */ 'ST-DEVELOPER v20.1',
/* originating_system */ 'Autodesk Translation Framework v14.17.0.0',
/* authorisation */ '');

FILE_SCHEMA (('AUTOMOTIVE_DESIGN { 1 0 10303 214 3 1 1 }'));
ENDSEC;

DATA;
#10=MECHANICAL_DESIGN_GEOMETRIC_PRESENTATION_REPRESENTATION('',(#13),#1103);
#11=SHAPE_REPRESENTATION_RELATIONSHIP('SRR','None',#1110,#12);
#12=ADVANCED_BREP_SHAPE_REPRESENTATION('',(#14),#1102);
#13=STYLED_ITEM('',(#1119),#14);
#14=MANIFOLD_SOLID_BREP('Body1',#683);
#15=ELLIPSE('',#722,5.07713305942873,5.00000000000001);
#16=ELLIPSE('',#723,5.07713305942873,5.00000000000001);
#17=ELLIPSE('',#729,5.07713305942872,4.99999999999999);
#18=ELLIPSE('',#730,5.07713305942872,4.99999999999999);
#19=(
BOUNDED_SURFACE()
B_SPLINE_SURFACE(1,2,((#1036,#1037,#1038),(#1039,#1040,#1041)),
 .UNSPECIFIED.,.F.,.F.,.F.)
B_SPLINE_SURFACE_WITH_KNOTS((2,2),(3,3),(0.,19.6961550602441),(4.44089209850062E-16,
1.5707963267949),.UNSPECIFIED.)
GEOMETRIC_REPRESENTATION_ITEM()
RATIONAL_B_SPLINE_SURFACE(((1.,0.707106781186548,1.),(1.,0.707106781186548,
1.)))
REPRESENTATION_ITEM('')
SURFACE()
);
#20=(
BOUNDED_SURFACE()
B_SPLINE_SURFACE(1,2,((#1072,#1073,#1074),(#1075,#1076,#1077)),
 .UNSPECIFIED.,.F.,.F.,.F.)
B_SPLINE_SURFACE_WITH_KNOTS((2,2),(3,3),(0.,19.6961550602442),(-1.5707963267949,
2.22044604925031E-16),.UNSPECIFIED.)
GEOMETRIC_REPRESENTATION_ITEM()
RATIONAL_B_SPLINE_SURFACE(((1.,0.707106781186546,1.),(1.,0.707106781186546,
1.)))
REPRESENTATION_ITEM('')
SURFACE()
);
#21=FACE_BOUND('',#86,.T.);
#22=FACE_BOUND('',#100,.T.);
#23=FACE_BOUND('',#103,.T.);
#24=FACE_BOUND('',#104,.T.);
#25=FACE_BOUND('',#105,.T.);
#26=FACE_BOUND('',#106,.T.);
#27=FACE_BOUND('',#107,.T.);
#28=FACE_OUTER_BOUND('',#65,.T.);
#29=FACE_OUTER_BOUND('',#66,.T.);
#30=FACE_OUTER_BOUND('',#67,.T.);
#31=FACE_OUTER_BOUND('',#68,.T.);
#32=FACE_OUTER_BOUND('',#69,.T.);
#33=FACE_OUTER_BOUND('',#70,.T.);
#34=FACE_OUTER_BOUND('',#71,.T.);
#35=FACE_OUTER_BOUND('',#72,.T.);
#36=FACE_OUTER_BOUND('',#73,.T.);
#37=FACE_OUTER_BOUND('',#74,.T.);
#38=FACE_OUTER_BOUND('',#75,.T.);
#39=FACE_OUTER_BOUND('',#76,.T.);
#40=FACE_OUTER_BOUND('',#77,.T.);
#41=FACE_OUTER_BOUND('',#78,.T.);
#42=FACE_OUTER_BOUND('',#79,.T.);
#43=FACE_OUTER_BOUND('',#80,.T.);
#44=FACE_OUTER_BOUND('',#81,.T.);
#45=FACE_OUTER_BOUND('',#82,.T.);
#46=FACE_OUTER_BOUND('',#83,.T.);
#47=FACE_OUTER_BOUND('',#84,.T.);
#48=FACE_OUTER_BOUND('',#85,.T.);
#49=FACE_OUTER_BOUND('',#87,.T.);
#50=FACE_OUTER_BOUND('',#88,.T.);
#51=FACE_OUTER_BOUND('',#89,.T.);
#52=FACE_OUTER_BOUND('',#90,.T.);
#53=FACE_OUTER_BOUND('',#91,.T.);
#54=FACE_OUTER_BOUND('',#92,.T.);
#55=FACE_OUTER_BOUND('',#93,.T.);
#56=FACE_OUTER_BOUND('',#94,.T.);
#57=FACE_OUTER_BOUND('',#95,.T.);
#58=FACE_OUTER_BOUND('',#96,.T.);
#59=FACE_OUTER_BOUND('',#97,.T.);
#60=FACE_OUTER_BOUND('',#98,.T.);
#61=FACE_OUTER_BOUND('',#99,.T.);
#62=FACE_OUTER_BOUND('',#101,.T.);
#63=FACE_OUTER_BOUND('',#102,.T.);
#64=FACE_OUTER_BOUND('',#108,.T.);
#65=EDGE_LOOP('',(#431,#432,#433,#434));
#66=EDGE_LOOP('',(#435,#436,#437,#438));
#67=EDGE_LOOP('',(#439,#440,#441,#442));
#68=EDGE_LOOP('',(#443,#444,#445,#446));
#69=EDGE_LOOP('',(#447,#448,#449,#450));
#70=EDGE_LOOP('',(#451,#452,#453,#454));
#71=EDGE_LOOP('',(#455,#456,#457,#458));
#72=EDGE_LOOP('',(#459,#460,#461,#462));
#73=EDGE_LOOP('',(#463,#464,#465,#466));
#74=EDGE_LOOP('',(#467,#468,#469,#470));
#75=EDGE_LOOP('',(#471,#472,#473,#474));
#76=EDGE_LOOP('',(#475,#476,#477,#478));
#77=EDGE_LOOP('',(#479,#480,#481,#482));
#78=EDGE_LOOP('',(#483,#484,#485,#486));
#79=EDGE_LOOP('',(#487,#488,#489,#490));
#80=EDGE_LOOP('',(#491,#492,#493,#494));
#81=EDGE_LOOP('',(#495,#496,#497,#498));
#82=EDGE_LOOP('',(#499,#500,#501,#502));
#83=EDGE_LOOP('',(#503,#504,#505,#506));
#84=EDGE_LOOP('',(#507,#508,#509,#510));
#85=EDGE_LOOP('',(#511,#512,#513,#514));
#86=EDGE_LOOP('',(#515,#516,#517,#518));
#87=EDGE_LOOP('',(#519,#520,#521,#522));
#88=EDGE_LOOP('',(#523,#524,#525,#526));
#89=EDGE_LOOP('',(#527,#528,#529,#530));
#90=EDGE_LOOP('',(#531,#532,#533,#534));
#91=EDGE_LOOP('',(#535,#536,#537,#538));
#92=EDGE_LOOP('',(#539,#540,#541,#542));
#93=EDGE_LOOP('',(#543,#544,#545,#546));
#94=EDGE_LOOP('',(#547,#548,#549,#550));
#95=EDGE_LOOP('',(#551,#552,#553,#554));
#96=EDGE_LOOP('',(#555,#556,#557,#558));
#97=EDGE_LOOP('',(#559,#560,#561,#562));
#98=EDGE_LOOP('',(#563,#564,#565,#566));
#99=EDGE_LOOP('',(#567,#568,#569,#570,#571,#572));
#100=EDGE_LOOP('',(#573,#574,#575,#576));
#101=EDGE_LOOP('',(#577,#578,#579,#580));
#102=EDGE_LOOP('',(#581,#582,#583,#584,#585,#586));
#103=EDGE_LOOP('',(#587,#588,#589,#590));
#104=EDGE_LOOP('',(#591,#592,#593,#594));
#105=EDGE_LOOP('',(#595,#596,#597,#598));
#106=EDGE_LOOP('',(#599,#600,#601,#602));
#107=EDGE_LOOP('',(#603,#604,#605,#606));
#108=EDGE_LOOP('',(#607,#608,#609,#610));
#109=LINE('',#906,#195);
#110=LINE('',#908,#196);
#111=LINE('',#910,#197);
#112=LINE('',#911,#198);
#113=LINE('',#914,#199);
#114=LINE('',#916,#200);
#115=LINE('',#917,#201);
#116=LINE('',#920,#202);
#117=LINE('',#922,#203);
#118=LINE('',#923,#204);
#119=LINE('',#925,#205);
#120=LINE('',#926,#206);
#121=LINE('',#931,#207);
#122=LINE('',#933,#208);
#123=LINE('',#935,#209);
#124=LINE('',#936,#210);
#125=LINE('',#939,#211);
#126=LINE('',#941,#212);
#127=LINE('',#942,#213);
#128=LINE('',#945,#214);
#129=LINE('',#947,#215);
#130=LINE('',#948,#216);
#131=LINE('',#950,#217);
#132=LINE('',#951,#218);
#133=LINE('',#956,#219);
#134=LINE('',#958,#220);
#135=LINE('',#960,#221);
#136=LINE('',#961,#222);
#137=LINE('',#964,#223);
#138=LINE('',#966,#224);
#139=LINE('',#967,#225);
#140=LINE('',#970,#226);
#141=LINE('',#972,#227);
#142=LINE('',#973,#228);
#143=LINE('',#975,#229);
#144=LINE('',#976,#230);
#145=LINE('',#981,#231);
#146=LINE('',#983,#232);
#147=LINE('',#985,#233);
#148=LINE('',#986,#234);
#149=LINE('',#989,#235);
#150=LINE('',#991,#236);
#151=LINE('',#992,#237);
#152=LINE('',#995,#238);
#153=LINE('',#997,#239);
#154=LINE('',#998,#240);
#155=LINE('',#1000,#241);
#156=LINE('',#1001,#242);
#157=LINE('',#1006,#243);
#158=LINE('',#1008,#244);
#159=LINE('',#1010,#245);
#160=LINE('',#1011,#246);
#161=LINE('',#1014,#247);
#162=LINE('',#1016,#248);
#163=LINE('',#1018,#249);
#164=LINE('',#1019,#250);
#165=LINE('',#1023,#251);
#166=LINE('',#1024,#252);
#167=LINE('',#1025,#253);
#168=LINE('',#1028,#254);
#169=LINE('',#1029,#255);
#170=LINE('',#1032,#256);
#171=LINE('',#1033,#257);
#172=LINE('',#1035,#258);
#173=LINE('',#1046,#259);
#174=LINE('',#1049,#260);
#175=LINE('',#1052,#261);
#176=LINE('',#1054,#262);
#177=LINE('',#1055,#263);
#178=LINE('',#1058,#264);
#179=LINE('',#1060,#265);
#180=LINE('',#1061,#266);
#181=LINE('',#1064,#267);
#182=LINE('',#1065,#268);
#183=LINE('',#1068,#269);
#184=LINE('',#1069,#270);
#185=LINE('',#1071,#271);
#186=LINE('',#1081,#272);
#187=LINE('',#1086,#273);
#188=LINE('',#1088,#274);
#189=LINE('',#1090,#275);
#190=LINE('',#1091,#276);
#191=LINE('',#1093,#277);
#192=LINE('',#1094,#278);
#193=LINE('',#1096,#279);
#194=LINE('',#1098,#280);
#195=VECTOR('',#740,10.);
#196=VECTOR('',#741,10.);
#197=VECTOR('',#742,10.);
#198=VECTOR('',#743,10.);
#199=VECTOR('',#746,10.);
#200=VECTOR('',#747,10.);
#201=VECTOR('',#748,10.);
#202=VECTOR('',#751,10.);
#203=VECTOR('',#752,10.);
#204=VECTOR('',#753,10.);
#205=VECTOR('',#756,10.);
#206=VECTOR('',#757,10.);
#207=VECTOR('',#762,10.);
#208=VECTOR('',#763,10.);
#209=VECTOR('',#764,10.);
#210=VECTOR('',#765,10.);
#211=VECTOR('',#768,10.);
#212=VECTOR('',#769,10.);
#213=VECTOR('',#770,10.);
#214=VECTOR('',#773,10.);
#215=VECTOR('',#774,10.);
#216=VECTOR('',#775,10.);
#217=VECTOR('',#778,10.);
#218=VECTOR('',#779,10.);
#219=VECTOR('',#784,10.);
#220=VECTOR('',#785,10.);
#221=VECTOR('',#786,10.);
#222=VECTOR('',#787,10.);
#223=VECTOR('',#790,10.);
#224=VECTOR('',#791,10.);
#225=VECTOR('',#792,10.);
#226=VECTOR('',#795,10.);
#227=VECTOR('',#796,10.);
#228=VECTOR('',#797,10.);
#229=VECTOR('',#800,10.);
#230=VECTOR('',#801,10.);
#231=VECTOR('',#806,10.);
#232=VECTOR('',#807,10.);
#233=VECTOR('',#808,10.);
#234=VECTOR('',#809,10.);
#235=VECTOR('',#812,10.);
#236=VECTOR('',#813,10.);
#237=VECTOR('',#814,10.);
#238=VECTOR('',#817,10.);
#239=VECTOR('',#818,10.);
#240=VECTOR('',#819,10.);
#241=VECTOR('',#822,10.);
#242=VECTOR('',#823,10.);
#243=VECTOR('',#828,10.);
#244=VECTOR('',#829,10.);
#245=VECTOR('',#830,10.);
#246=VECTOR('',#831,10.);
#247=VECTOR('',#832,10.);
#248=VECTOR('',#833,10.);
#249=VECTOR('',#834,10.);
#250=VECTOR('',#835,10.);
#251=VECTOR('',#838,10.);
#252=VECTOR('',#839,10.);
#253=VECTOR('',#840,10.);
#254=VECTOR('',#843,10.);
#255=VECTOR('',#844,10.);
#256=VECTOR('',#847,10.);
#257=VECTOR('',#848,10.);
#258=VECTOR('',#851,10.);
#259=VECTOR('',#854,10.);
#260=VECTOR('',#857,10.);
#261=VECTOR('',#860,10.);
#262=VECTOR('',#861,10.);
#263=VECTOR('',#862,10.);
#264=VECTOR('',#865,10.);
#265=VECTOR('',#866,10.);
#266=VECTOR('',#867,10.);
#267=VECTOR('',#870,10.);
#268=VECTOR('',#871,10.);
#269=VECTOR('',#874,10.);
#270=VECTOR('',#875,10.);
#271=VECTOR('',#878,10.);
#272=VECTOR('',#881,10.);
#273=VECTOR('',#886,10.);
#274=VECTOR('',#887,10.);
#275=VECTOR('',#888,10.);
#276=VECTOR('',#889,10.);
#277=VECTOR('',#892,10.);
#278=VECTOR('',#893,10.);
#279=VECTOR('',#896,10.);
#280=VECTOR('',#899,10.);
#281=VERTEX_POINT('',#904);
#282=VERTEX_POINT('',#905);
#283=VERTEX_POINT('',#907);
#284=VERTEX_POINT('',#909);
#285=VERTEX_POINT('',#913);
#286=VERTEX_POINT('',#915);
#287=VERTEX_POINT('',#919);
#288=VERTEX_POINT('',#921);
#289=VERTEX_POINT('',#929);
#290=VERTEX_POINT('',#930);
#291=VERTEX_POINT('',#932);
#292=VERTEX_POINT('',#934);
#293=VERTEX_POINT('',#938);
#294=VERTEX_POINT('',#940);
#295=VERTEX_POINT('',#944);
#296=VERTEX_POINT('',#946);
#297=VERTEX_POINT('',#954);
#298=VERTEX_POINT('',#955);
#299=VERTEX_POINT('',#957);
#300=VERTEX_POINT('',#959);
#301=VERTEX_POINT('',#963);
#302=VERTEX_POINT('',#965);
#303=VERTEX_POINT('',#969);
#304=VERTEX_POINT('',#971);
#305=VERTEX_POINT('',#979);
#306=VERTEX_POINT('',#980);
#307=VERTEX_POINT('',#982);
#308=VERTEX_POINT('',#984);
#309=VERTEX_POINT('',#988);
#310=VERTEX_POINT('',#990);
#311=VERTEX_POINT('',#994);
#312=VERTEX_POINT('',#996);
#313=VERTEX_POINT('',#1004);
#314=VERTEX_POINT('',#1005);
#315=VERTEX_POINT('',#1007);
#316=VERTEX_POINT('',#1009);
#317=VERTEX_POINT('',#1012);
#318=VERTEX_POINT('',#1013);
#319=VERTEX_POINT('',#1015);
#320=VERTEX_POINT('',#1017);
#321=VERTEX_POINT('',#1021);
#322=VERTEX_POINT('',#1022);
#323=VERTEX_POINT('',#1027);
#324=VERTEX_POINT('',#1031);
#325=VERTEX_POINT('',#1042);
#326=VERTEX_POINT('',#1043);
#327=VERTEX_POINT('',#1045);
#328=VERTEX_POINT('',#1047);
#329=VERTEX_POINT('',#1051);
#330=VERTEX_POINT('',#1053);
#331=VERTEX_POINT('',#1057);
#332=VERTEX_POINT('',#1059);
#333=VERTEX_POINT('',#1063);
#334=VERTEX_POINT('',#1067);
#335=VERTEX_POINT('',#1078);
#336=VERTEX_POINT('',#1080);
#337=VERTEX_POINT('',#1084);
#338=VERTEX_POINT('',#1085);
#339=VERTEX_POINT('',#1087);
#340=VERTEX_POINT('',#1089);
#341=EDGE_CURVE('',#281,#282,#109,.T.);
#342=EDGE_CURVE('',#281,#283,#110,.T.);
#343=EDGE_CURVE('',#283,#284,#111,.T.);
#344=EDGE_CURVE('',#282,#284,#112,.T.);
#345=EDGE_CURVE('',#285,#281,#113,.T.);
#346=EDGE_CURVE('',#285,#286,#114,.T.);
#347=EDGE_CURVE('',#286,#283,#115,.T.);
#348=EDGE_CURVE('',#287,#285,#116,.T.);
#349=EDGE_CURVE('',#287,#288,#117,.T.);
#350=EDGE_CURVE('',#288,#286,#118,.T.);
#351=EDGE_CURVE('',#282,#287,#119,.T.);
#352=EDGE_CURVE('',#284,#288,#120,.T.);
#353=EDGE_CURVE('',#289,#290,#121,.T.);
#354=EDGE_CURVE('',#289,#291,#122,.T.);
#355=EDGE_CURVE('',#291,#292,#123,.T.);
#356=EDGE_CURVE('',#290,#292,#124,.T.);
#357=EDGE_CURVE('',#293,#289,#125,.T.);
#358=EDGE_CURVE('',#293,#294,#126,.T.);
#359=EDGE_CURVE('',#294,#291,#127,.T.);
#360=EDGE_CURVE('',#295,#293,#128,.T.);
#361=EDGE_CURVE('',#295,#296,#129,.T.);
#362=EDGE_CURVE('',#296,#294,#130,.T.);
#363=EDGE_CURVE('',#290,#295,#131,.T.);
#364=EDGE_CURVE('',#292,#296,#132,.T.);
#365=EDGE_CURVE('',#297,#298,#133,.T.);
#366=EDGE_CURVE('',#297,#299,#134,.T.);
#367=EDGE_CURVE('',#299,#300,#135,.T.);
#368=EDGE_CURVE('',#298,#300,#136,.T.);
#369=EDGE_CURVE('',#301,#297,#137,.T.);
#370=EDGE_CURVE('',#301,#302,#138,.T.);
#371=EDGE_CURVE('',#302,#299,#139,.T.);
#372=EDGE_CURVE('',#303,#301,#140,.T.);
#373=EDGE_CURVE('',#303,#304,#141,.T.);
#374=EDGE_CURVE('',#304,#302,#142,.T.);
#375=EDGE_CURVE('',#298,#303,#143,.T.);
#376=EDGE_CURVE('',#300,#304,#144,.T.);
#377=EDGE_CURVE('',#305,#306,#145,.T.);
#378=EDGE_CURVE('',#305,#307,#146,.T.);
#379=EDGE_CURVE('',#307,#308,#147,.T.);
#380=EDGE_CURVE('',#306,#308,#148,.T.);
#381=EDGE_CURVE('',#309,#305,#149,.T.);
#382=EDGE_CURVE('',#309,#310,#150,.T.);
#383=EDGE_CURVE('',#310,#307,#151,.T.);
#384=EDGE_CURVE('',#311,#309,#152,.T.);
#385=EDGE_CURVE('',#311,#312,#153,.T.);
#386=EDGE_CURVE('',#312,#310,#154,.T.);
#387=EDGE_CURVE('',#306,#311,#155,.T.);
#388=EDGE_CURVE('',#308,#312,#156,.T.);
#389=EDGE_CURVE('',#313,#314,#157,.T.);
#390=EDGE_CURVE('',#315,#313,#158,.T.);
#391=EDGE_CURVE('',#316,#315,#159,.T.);
#392=EDGE_CURVE('',#314,#316,#160,.T.);
#393=EDGE_CURVE('',#317,#318,#161,.T.);
#394=EDGE_CURVE('',#318,#319,#162,.T.);
#395=EDGE_CURVE('',#319,#320,#163,.T.);
#396=EDGE_CURVE('',#320,#317,#164,.T.);
#397=EDGE_CURVE('',#321,#322,#165,.T.);
#398=EDGE_CURVE('',#315,#321,#166,.T.);
#399=EDGE_CURVE('',#313,#322,#167,.T.);
#400=EDGE_CURVE('',#323,#321,#168,.T.);
#401=EDGE_CURVE('',#316,#323,#169,.T.);
#402=EDGE_CURVE('',#324,#323,#170,.T.);
#403=EDGE_CURVE('',#314,#324,#171,.T.);
#404=EDGE_CURVE('',#322,#324,#172,.T.);
#405=EDGE_CURVE('',#325,#326,#15,.T.);
#406=EDGE_CURVE('',#326,#327,#173,.T.);
#407=EDGE_CURVE('',#328,#327,#16,.T.);
#408=EDGE_CURVE('',#325,#328,#174,.T.);
#409=EDGE_CURVE('',#326,#329,#175,.T.);
#410=EDGE_CURVE('',#329,#330,#176,.T.);
#411=EDGE_CURVE('',#327,#330,#177,.T.);
#412=EDGE_CURVE('',#331,#318,#178,.T.);
#413=EDGE_CURVE('',#332,#331,#179,.T.);
#414=EDGE_CURVE('',#332,#319,#180,.T.);
#415=EDGE_CURVE('',#333,#332,#181,.T.);
#416=EDGE_CURVE('',#333,#320,#182,.T.);
#417=EDGE_CURVE('',#334,#333,#183,.T.);
#418=EDGE_CURVE('',#334,#317,#184,.T.);
#419=EDGE_CURVE('',#331,#334,#185,.T.);
#420=EDGE_CURVE('',#329,#335,#17,.T.);
#421=EDGE_CURVE('',#335,#336,#186,.T.);
#422=EDGE_CURVE('',#330,#336,#18,.T.);
#423=EDGE_CURVE('',#337,#338,#187,.T.);
#424=EDGE_CURVE('',#338,#339,#188,.T.);
#425=EDGE_CURVE('',#339,#340,#189,.T.);
#426=EDGE_CURVE('',#340,#337,#190,.T.);
#427=EDGE_CURVE('',#340,#328,#191,.T.);
#428=EDGE_CURVE('',#336,#337,#192,.T.);
#429=EDGE_CURVE('',#325,#339,#193,.T.);
#430=EDGE_CURVE('',#338,#335,#194,.T.);
#431=ORIENTED_EDGE('',*,*,#341,.F.);
#432=ORIENTED_EDGE('',*,*,#342,.T.);
#433=ORIENTED_EDGE('',*,*,#343,.T.);
#434=ORIENTED_EDGE('',*,*,#344,.F.);
#435=ORIENTED_EDGE('',*,*,#345,.F.);
#436=ORIENTED_EDGE('',*,*,#346,.T.);
#437=ORIENTED_EDGE('',*,*,#347,.T.);
#438=ORIENTED_EDGE('',*,*,#342,.F.);
#439=ORIENTED_EDGE('',*,*,#348,.F.);
#440=ORIENTED_EDGE('',*,*,#349,.T.);
#441=ORIENTED_EDGE('',*,*,#350,.T.);
#442=ORIENTED_EDGE('',*,*,#346,.F.);
#443=ORIENTED_EDGE('',*,*,#351,.F.);
#444=ORIENTED_EDGE('',*,*,#344,.T.);
#445=ORIENTED_EDGE('',*,*,#352,.T.);
#446=ORIENTED_EDGE('',*,*,#349,.F.);
#447=ORIENTED_EDGE('',*,*,#352,.F.);
#448=ORIENTED_EDGE('',*,*,#343,.F.);
#449=ORIENTED_EDGE('',*,*,#347,.F.);
#450=ORIENTED_EDGE('',*,*,#350,.F.);
#451=ORIENTED_EDGE('',*,*,#353,.F.);
#452=ORIENTED_EDGE('',*,*,#354,.T.);
#453=ORIENTED_EDGE('',*,*,#355,.T.);
#454=ORIENTED_EDGE('',*,*,#356,.F.);
#455=ORIENTED_EDGE('',*,*,#357,.F.);
#456=ORIENTED_EDGE('',*,*,#358,.T.);
#457=ORIENTED_EDGE('',*,*,#359,.T.);
#458=ORIENTED_EDGE('',*,*,#354,.F.);
#459=ORIENTED_EDGE('',*,*,#360,.F.);
#460=ORIENTED_EDGE('',*,*,#361,.T.);
#461=ORIENTED_EDGE('',*,*,#362,.T.);
#462=ORIENTED_EDGE('',*,*,#358,.F.);
#463=ORIENTED_EDGE('',*,*,#363,.F.);
#464=ORIENTED_EDGE('',*,*,#356,.T.);
#465=ORIENTED_EDGE('',*,*,#364,.T.);
#466=ORIENTED_EDGE('',*,*,#361,.F.);
#467=ORIENTED_EDGE('',*,*,#364,.F.);
#468=ORIENTED_EDGE('',*,*,#355,.F.);
#469=ORIENTED_EDGE('',*,*,#359,.F.);
#470=ORIENTED_EDGE('',*,*,#362,.F.);
#471=ORIENTED_EDGE('',*,*,#365,.F.);
#472=ORIENTED_EDGE('',*,*,#366,.T.);
#473=ORIENTED_EDGE('',*,*,#367,.T.);
#474=ORIENTED_EDGE('',*,*,#368,.F.);
#475=ORIENTED_EDGE('',*,*,#369,.F.);
#476=ORIENTED_EDGE('',*,*,#370,.T.);
#477=ORIENTED_EDGE('',*,*,#371,.T.);
#478=ORIENTED_EDGE('',*,*,#366,.F.);
#479=ORIENTED_EDGE('',*,*,#372,.F.);
#480=ORIENTED_EDGE('',*,*,#373,.T.);
#481=ORIENTED_EDGE('',*,*,#374,.T.);
#482=ORIENTED_EDGE('',*,*,#370,.F.);
#483=ORIENTED_EDGE('',*,*,#375,.F.);
#484=ORIENTED_EDGE('',*,*,#368,.T.);
#485=ORIENTED_EDGE('',*,*,#376,.T.);
#486=ORIENTED_EDGE('',*,*,#373,.F.);
#487=ORIENTED_EDGE('',*,*,#376,.F.);
#488=ORIENTED_EDGE('',*,*,#367,.F.);
#489=ORIENTED_EDGE('',*,*,#371,.F.);
#490=ORIENTED_EDGE('',*,*,#374,.F.);
#491=ORIENTED_EDGE('',*,*,#377,.F.);
#492=ORIENTED_EDGE('',*,*,#378,.T.);
#493=ORIENTED_EDGE('',*,*,#379,.T.);
#494=ORIENTED_EDGE('',*,*,#380,.F.);
#495=ORIENTED_EDGE('',*,*,#381,.F.);
#496=ORIENTED_EDGE('',*,*,#382,.T.);
#497=ORIENTED_EDGE('',*,*,#383,.T.);
#498=ORIENTED_EDGE('',*,*,#378,.F.);
#499=ORIENTED_EDGE('',*,*,#384,.F.);
#500=ORIENTED_EDGE('',*,*,#385,.T.);
#501=ORIENTED_EDGE('',*,*,#386,.T.);
#502=ORIENTED_EDGE('',*,*,#382,.F.);
#503=ORIENTED_EDGE('',*,*,#387,.F.);
#504=ORIENTED_EDGE('',*,*,#380,.T.);
#505=ORIENTED_EDGE('',*,*,#388,.T.);
#506=ORIENTED_EDGE('',*,*,#385,.F.);
#507=ORIENTED_EDGE('',*,*,#388,.F.);
#508=ORIENTED_EDGE('',*,*,#379,.F.);
#509=ORIENTED_EDGE('',*,*,#383,.F.);
#510=ORIENTED_EDGE('',*,*,#386,.F.);
#511=ORIENTED_EDGE('',*,*,#389,.F.);
#512=ORIENTED_EDGE('',*,*,#390,.F.);
#513=ORIENTED_EDGE('',*,*,#391,.F.);
#514=ORIENTED_EDGE('',*,*,#392,.F.);
#515=ORIENTED_EDGE('',*,*,#393,.T.);
#516=ORIENTED_EDGE('',*,*,#394,.T.);
#517=ORIENTED_EDGE('',*,*,#395,.T.);
#518=ORIENTED_EDGE('',*,*,#396,.T.);
#519=ORIENTED_EDGE('',*,*,#397,.F.);
#520=ORIENTED_EDGE('',*,*,#398,.F.);
#521=ORIENTED_EDGE('',*,*,#390,.T.);
#522=ORIENTED_EDGE('',*,*,#399,.T.);
#523=ORIENTED_EDGE('',*,*,#400,.F.);
#524=ORIENTED_EDGE('',*,*,#401,.F.);
#525=ORIENTED_EDGE('',*,*,#391,.T.);
#526=ORIENTED_EDGE('',*,*,#398,.T.);
#527=ORIENTED_EDGE('',*,*,#392,.T.);
#528=ORIENTED_EDGE('',*,*,#401,.T.);
#529=ORIENTED_EDGE('',*,*,#402,.F.);
#530=ORIENTED_EDGE('',*,*,#403,.F.);
#531=ORIENTED_EDGE('',*,*,#389,.T.);
#532=ORIENTED_EDGE('',*,*,#403,.T.);
#533=ORIENTED_EDGE('',*,*,#404,.F.);
#534=ORIENTED_EDGE('',*,*,#399,.F.);
#535=ORIENTED_EDGE('',*,*,#405,.T.);
#536=ORIENTED_EDGE('',*,*,#406,.T.);
#537=ORIENTED_EDGE('',*,*,#407,.F.);
#538=ORIENTED_EDGE('',*,*,#408,.F.);
#539=ORIENTED_EDGE('',*,*,#409,.T.);
#540=ORIENTED_EDGE('',*,*,#410,.T.);
#541=ORIENTED_EDGE('',*,*,#411,.F.);
#542=ORIENTED_EDGE('',*,*,#406,.F.);
#543=ORIENTED_EDGE('',*,*,#394,.F.);
#544=ORIENTED_EDGE('',*,*,#412,.F.);
#545=ORIENTED_EDGE('',*,*,#413,.F.);
#546=ORIENTED_EDGE('',*,*,#414,.T.);
#547=ORIENTED_EDGE('',*,*,#395,.F.);
#548=ORIENTED_EDGE('',*,*,#414,.F.);
#549=ORIENTED_EDGE('',*,*,#415,.F.);
#550=ORIENTED_EDGE('',*,*,#416,.T.);
#551=ORIENTED_EDGE('',*,*,#396,.F.);
#552=ORIENTED_EDGE('',*,*,#416,.F.);
#553=ORIENTED_EDGE('',*,*,#417,.F.);
#554=ORIENTED_EDGE('',*,*,#418,.T.);
#555=ORIENTED_EDGE('',*,*,#393,.F.);
#556=ORIENTED_EDGE('',*,*,#418,.F.);
#557=ORIENTED_EDGE('',*,*,#419,.F.);
#558=ORIENTED_EDGE('',*,*,#412,.T.);
#559=ORIENTED_EDGE('',*,*,#420,.T.);
#560=ORIENTED_EDGE('',*,*,#421,.T.);
#561=ORIENTED_EDGE('',*,*,#422,.F.);
#562=ORIENTED_EDGE('',*,*,#410,.F.);
#563=ORIENTED_EDGE('',*,*,#423,.T.);
#564=ORIENTED_EDGE('',*,*,#424,.T.);
#565=ORIENTED_EDGE('',*,*,#425,.T.);
#566=ORIENTED_EDGE('',*,*,#426,.T.);
#567=ORIENTED_EDGE('',*,*,#426,.F.);
#568=ORIENTED_EDGE('',*,*,#427,.T.);
#569=ORIENTED_EDGE('',*,*,#407,.T.);
#570=ORIENTED_EDGE('',*,*,#411,.T.);
#571=ORIENTED_EDGE('',*,*,#422,.T.);
#572=ORIENTED_EDGE('',*,*,#428,.T.);
#573=ORIENTED_EDGE('',*,*,#404,.T.);
#574=ORIENTED_EDGE('',*,*,#402,.T.);
#575=ORIENTED_EDGE('',*,*,#400,.T.);
#576=ORIENTED_EDGE('',*,*,#397,.T.);
#577=ORIENTED_EDGE('',*,*,#425,.F.);
#578=ORIENTED_EDGE('',*,*,#429,.F.);
#579=ORIENTED_EDGE('',*,*,#408,.T.);
#580=ORIENTED_EDGE('',*,*,#427,.F.);
#581=ORIENTED_EDGE('',*,*,#424,.F.);
#582=ORIENTED_EDGE('',*,*,#430,.T.);
#583=ORIENTED_EDGE('',*,*,#420,.F.);
#584=ORIENTED_EDGE('',*,*,#409,.F.);
#585=ORIENTED_EDGE('',*,*,#405,.F.);
#586=ORIENTED_EDGE('',*,*,#429,.T.);
#587=ORIENTED_EDGE('',*,*,#341,.T.);
#588=ORIENTED_EDGE('',*,*,#351,.T.);
#589=ORIENTED_EDGE('',*,*,#348,.T.);
#590=ORIENTED_EDGE('',*,*,#345,.T.);
#591=ORIENTED_EDGE('',*,*,#353,.T.);
#592=ORIENTED_EDGE('',*,*,#363,.T.);
#593=ORIENTED_EDGE('',*,*,#360,.T.);
#594=ORIENTED_EDGE('',*,*,#357,.T.);
#595=ORIENTED_EDGE('',*,*,#365,.T.);
#596=ORIENTED_EDGE('',*,*,#375,.T.);
#597=ORIENTED_EDGE('',*,*,#372,.T.);
#598=ORIENTED_EDGE('',*,*,#369,.T.);
#599=ORIENTED_EDGE('',*,*,#377,.T.);
#600=ORIENTED_EDGE('',*,*,#387,.T.);
#601=ORIENTED_EDGE('',*,*,#384,.T.);
#602=ORIENTED_EDGE('',*,*,#381,.T.);
#603=ORIENTED_EDGE('',*,*,#419,.T.);
#604=ORIENTED_EDGE('',*,*,#417,.T.);
#605=ORIENTED_EDGE('',*,*,#415,.T.);
#606=ORIENTED_EDGE('',*,*,#413,.T.);
#607=ORIENTED_EDGE('',*,*,#423,.F.);
#608=ORIENTED_EDGE('',*,*,#428,.F.);
#609=ORIENTED_EDGE('',*,*,#421,.F.);
#610=ORIENTED_EDGE('',*,*,#430,.F.);
#611=PLANE('',#697);
#612=PLANE('',#698);
#613=PLANE('',#699);
#614=PLANE('',#700);
#615=PLANE('',#701);
#616=PLANE('',#702);
#617=PLANE('',#703);
#618=PLANE('',#704);
#619=PLANE('',#705);
#620=PLANE('',#706);
#621=PLANE('',#707);
#622=PLANE('',#708);
#623=PLANE('',#709);
#624=PLANE('',#710);
#625=PLANE('',#711);
#626=PLANE('',#712);
#627=PLANE('',#713);
#628=PLANE('',#714);
#629=PLANE('',#715);
#630=PLANE('',#716);
#631=PLANE('',#717);
#632=PLANE('',#718);
#633=PLANE('',#719);
#634=PLANE('',#720);
#635=PLANE('',#721);
#636=PLANE('',#724);
#637=PLANE('',#725);
#638=PLANE('',#726);
#639=PLANE('',#727);
#640=PLANE('',#728);
#641=PLANE('',#731);
#642=PLANE('',#732);
#643=PLANE('',#733);
#644=PLANE('',#734);
#645=PLANE('',#735);
#646=ADVANCED_FACE('',(#28),#611,.F.);
#647=ADVANCED_FACE('',(#29),#612,.F.);
#648=ADVANCED_FACE('',(#30),#613,.F.);
#649=ADVANCED_FACE('',(#31),#614,.F.);
#650=ADVANCED_FACE('',(#32),#615,.F.);
#651=ADVANCED_FACE('',(#33),#616,.F.);
#652=ADVANCED_FACE('',(#34),#617,.F.);
#653=ADVANCED_FACE('',(#35),#618,.F.);
#654=ADVANCED_FACE('',(#36),#619,.F.);
#655=ADVANCED_FACE('',(#37),#620,.F.);
#656=ADVANCED_FACE('',(#38),#621,.F.);
#657=ADVANCED_FACE('',(#39),#622,.F.);
#658=ADVANCED_FACE('',(#40),#623,.F.);
#659=ADVANCED_FACE('',(#41),#624,.F.);
#660=ADVANCED_FACE('',(#42),#625,.F.);
#661=ADVANCED_FACE('',(#43),#626,.F.);
#662=ADVANCED_FACE('',(#44),#627,.F.);
#663=ADVANCED_FACE('',(#45),#628,.F.);
#664=ADVANCED_FACE('',(#46),#629,.F.);
#665=ADVANCED_FACE('',(#47),#630,.F.);
#666=ADVANCED_FACE('',(#48,#21),#631,.T.);
#667=ADVANCED_FACE('',(#49),#632,.T.);
#668=ADVANCED_FACE('',(#50),#633,.T.);
#669=ADVANCED_FACE('',(#51),#634,.T.);
#670=ADVANCED_FACE('',(#52),#635,.T.);
#671=ADVANCED_FACE('',(#53),#19,.F.);
#672=ADVANCED_FACE('',(#54),#636,.T.);
#673=ADVANCED_FACE('',(#55),#637,.F.);
#674=ADVANCED_FACE('',(#56),#638,.F.);
#675=ADVANCED_FACE('',(#57),#639,.F.);
#676=ADVANCED_FACE('',(#58),#640,.F.);
#677=ADVANCED_FACE('',(#59),#20,.F.);
#678=ADVANCED_FACE('',(#60),#641,.F.);
#679=ADVANCED_FACE('',(#61,#22),#642,.T.);
#680=ADVANCED_FACE('',(#62),#643,.T.);
#681=ADVANCED_FACE('',(#63,#23,#24,#25,#26,#27),#644,.F.);
#682=ADVANCED_FACE('',(#64),#645,.T.);
#683=CLOSED_SHELL('',(#646,#647,#648,#649,#650,#651,#652,#653,#654,#655,
#656,#657,#658,#659,#660,#661,#662,#663,#664,#665,#666,#667,#668,#669,#670,
#671,#672,#673,#674,#675,#676,#677,#678,#679,#680,#681,#682));
#684=DERIVED_UNIT_ELEMENT(#686,1.);
#685=DERIVED_UNIT_ELEMENT(#1105,-3.);
#686=(
MASS_UNIT()
NAMED_UNIT(*)
SI_UNIT(.KILO.,.GRAM.)
);
#687=DERIVED_UNIT((#684,#685));
#688=MEASURE_REPRESENTATION_ITEM('density measure',
POSITIVE_RATIO_MEASURE(7850.),#687);
#689=PROPERTY_DEFINITION_REPRESENTATION(#694,#691);
#690=PROPERTY_DEFINITION_REPRESENTATION(#695,#692);
#691=REPRESENTATION('material name',(#693),#1102);
#692=REPRESENTATION('density',(#688),#1102);
#693=DESCRIPTIVE_REPRESENTATION_ITEM('Steel','Steel');
#694=PROPERTY_DEFINITION('material property','material name',#1112);
#695=PROPERTY_DEFINITION('material property','density of part',#1112);
#696=AXIS2_PLACEMENT_3D('',#902,#736,#737);
#697=AXIS2_PLACEMENT_3D('',#903,#738,#739);
#698=AXIS2_PLACEMENT_3D('',#912,#744,#745);
#699=AXIS2_PLACEMENT_3D('',#918,#749,#750);
#700=AXIS2_PLACEMENT_3D('',#924,#754,#755);
#701=AXIS2_PLACEMENT_3D('',#927,#758,#759);
#702=AXIS2_PLACEMENT_3D('',#928,#760,#761);
#703=AXIS2_PLACEMENT_3D('',#937,#766,#767);
#704=AXIS2_PLACEMENT_3D('',#943,#771,#772);
#705=AXIS2_PLACEMENT_3D('',#949,#776,#777);
#706=AXIS2_PLACEMENT_3D('',#952,#780,#781);
#707=AXIS2_PLACEMENT_3D('',#953,#782,#783);
#708=AXIS2_PLACEMENT_3D('',#962,#788,#789);
#709=AXIS2_PLACEMENT_3D('',#968,#793,#794);
#710=AXIS2_PLACEMENT_3D('',#974,#798,#799);
#711=AXIS2_PLACEMENT_3D('',#977,#802,#803);
#712=AXIS2_PLACEMENT_3D('',#978,#804,#805);
#713=AXIS2_PLACEMENT_3D('',#987,#810,#811);
#714=AXIS2_PLACEMENT_3D('',#993,#815,#816);
#715=AXIS2_PLACEMENT_3D('',#999,#820,#821);
#716=AXIS2_PLACEMENT_3D('',#1002,#824,#825);
#717=AXIS2_PLACEMENT_3D('',#1003,#826,#827);
#718=AXIS2_PLACEMENT_3D('',#1020,#836,#837);
#719=AXIS2_PLACEMENT_3D('',#1026,#841,#842);
#720=AXIS2_PLACEMENT_3D('',#1030,#845,#846);
#721=AXIS2_PLACEMENT_3D('',#1034,#849,#850);
#722=AXIS2_PLACEMENT_3D('',#1044,#852,#853);
#723=AXIS2_PLACEMENT_3D('',#1048,#855,#856);
#724=AXIS2_PLACEMENT_3D('',#1050,#858,#859);
#725=AXIS2_PLACEMENT_3D('',#1056,#863,#864);
#726=AXIS2_PLACEMENT_3D('',#1062,#868,#869);
#727=AXIS2_PLACEMENT_3D('',#1066,#872,#873);
#728=AXIS2_PLACEMENT_3D('',#1070,#876,#877);
#729=AXIS2_PLACEMENT_3D('',#1079,#879,#880);
#730=AXIS2_PLACEMENT_3D('',#1082,#882,#883);
#731=AXIS2_PLACEMENT_3D('',#1083,#884,#885);
#732=AXIS2_PLACEMENT_3D('',#1092,#890,#891);
#733=AXIS2_PLACEMENT_3D('',#1095,#894,#895);
#734=AXIS2_PLACEMENT_3D('',#1097,#897,#898);
#735=AXIS2_PLACEMENT_3D('',#1099,#900,#901);
#736=DIRECTION('axis',(0.,0.,1.));
#737=DIRECTION('refdir',(1.,0.,0.));
#738=DIRECTION('center_axis',(-0.709033325165754,-0.705174973892576,0.));
#739=DIRECTION('ref_axis',(0.705174973892576,-0.709033325165754,0.));
#740=DIRECTION('',(0.705174973892576,-0.709033325165754,0.));
#741=DIRECTION('',(0.,0.,1.));
#742=DIRECTION('',(0.705174973892576,-0.709033325165754,0.));
#743=DIRECTION('',(0.,0.,1.));
#744=DIRECTION('center_axis',(-0.705174973892576,0.709033325165754,0.));
#745=DIRECTION('ref_axis',(-0.709033325165754,-0.705174973892576,0.));
#746=DIRECTION('',(-0.709033325165754,-0.705174973892576,0.));
#747=DIRECTION('',(0.,0.,1.));
#748=DIRECTION('',(-0.709033325165754,-0.705174973892575,0.));
#749=DIRECTION('center_axis',(0.709033325165756,0.705174973892573,0.));
#750=DIRECTION('ref_axis',(-0.705174973892573,0.709033325165756,0.));
#751=DIRECTION('',(-0.705174973892573,0.709033325165756,0.));
#752=DIRECTION('',(0.,0.,1.));
#753=DIRECTION('',(-0.705174973892573,0.709033325165756,0.));
#754=DIRECTION('center_axis',(0.705174973892569,-0.70903332516576,0.));
#755=DIRECTION('ref_axis',(0.70903332516576,0.705174973892569,0.));
#756=DIRECTION('',(0.70903332516576,0.705174973892569,0.));
#757=DIRECTION('',(0.70903332516576,0.705174973892569,0.));
#758=DIRECTION('center_axis',(0.,0.,1.));
#759=DIRECTION('ref_axis',(1.,0.,0.));
#760=DIRECTION('center_axis',(-0.709033325165754,-0.705174973892576,0.));
#761=DIRECTION('ref_axis',(0.705174973892576,-0.709033325165754,0.));
#762=DIRECTION('',(0.705174973892576,-0.709033325165754,0.));
#763=DIRECTION('',(0.,0.,1.));
#764=DIRECTION('',(0.705174973892576,-0.709033325165754,0.));
#765=DIRECTION('',(0.,0.,1.));
#766=DIRECTION('center_axis',(-0.705174973892576,0.709033325165754,0.));
#767=DIRECTION('ref_axis',(-0.709033325165754,-0.705174973892576,0.));
#768=DIRECTION('',(-0.709033325165754,-0.705174973892576,0.));
#769=DIRECTION('',(0.,0.,1.));
#770=DIRECTION('',(-0.709033325165754,-0.705174973892575,0.));
#771=DIRECTION('center_axis',(0.709033325165756,0.705174973892573,0.));
#772=DIRECTION('ref_axis',(-0.705174973892573,0.709033325165756,0.));
#773=DIRECTION('',(-0.705174973892573,0.709033325165756,0.));
#774=DIRECTION('',(0.,0.,1.));
#775=DIRECTION('',(-0.705174973892573,0.709033325165756,0.));
#776=DIRECTION('center_axis',(0.705174973892569,-0.70903332516576,0.));
#777=DIRECTION('ref_axis',(0.70903332516576,0.705174973892569,0.));
#778=DIRECTION('',(0.70903332516576,0.705174973892569,0.));
#779=DIRECTION('',(0.70903332516576,0.705174973892569,0.));
#780=DIRECTION('center_axis',(0.,0.,1.));
#781=DIRECTION('ref_axis',(1.,0.,0.));
#782=DIRECTION('center_axis',(-0.709033325165754,-0.705174973892576,0.));
#783=DIRECTION('ref_axis',(0.705174973892576,-0.709033325165754,0.));
#784=DIRECTION('',(0.705174973892576,-0.709033325165754,0.));
#785=DIRECTION('',(0.,0.,1.));
#786=DIRECTION('',(0.705174973892576,-0.709033325165754,0.));
#787=DIRECTION('',(0.,0.,1.));
#788=DIRECTION('center_axis',(-0.705174973892576,0.709033325165754,0.));
#789=DIRECTION('ref_axis',(-0.709033325165754,-0.705174973892576,0.));
#790=DIRECTION('',(-0.709033325165754,-0.705174973892576,0.));
#791=DIRECTION('',(0.,0.,1.));
#792=DIRECTION('',(-0.709033325165754,-0.705174973892575,0.));
#793=DIRECTION('center_axis',(0.709033325165756,0.705174973892573,0.));
#794=DIRECTION('ref_axis',(-0.705174973892573,0.709033325165756,0.));
#795=DIRECTION('',(-0.705174973892573,0.709033325165756,0.));
#796=DIRECTION('',(0.,0.,1.));
#797=DIRECTION('',(-0.705174973892573,0.709033325165756,0.));
#798=DIRECTION('center_axis',(0.705174973892569,-0.70903332516576,0.));
#799=DIRECTION('ref_axis',(0.70903332516576,0.705174973892569,0.));
#800=DIRECTION('',(0.70903332516576,0.705174973892569,0.));
#801=DIRECTION('',(0.70903332516576,0.705174973892569,0.));
#802=DIRECTION('center_axis',(0.,0.,1.));
#803=DIRECTION('ref_axis',(1.,0.,0.));
#804=DIRECTION('center_axis',(-0.709033325165754,-0.705174973892576,0.));
#805=DIRECTION('ref_axis',(0.705174973892576,-0.709033325165754,0.));
#806=DIRECTION('',(0.705174973892576,-0.709033325165754,0.));
#807=DIRECTION('',(0.,0.,1.));
#808=DIRECTION('',(0.705174973892576,-0.709033325165754,0.));
#809=DIRECTION('',(0.,0.,1.));
#810=DIRECTION('center_axis',(-0.705174973892576,0.709033325165754,0.));
#811=DIRECTION('ref_axis',(-0.709033325165754,-0.705174973892576,0.));
#812=DIRECTION('',(-0.709033325165754,-0.705174973892576,0.));
#813=DIRECTION('',(0.,0.,1.));
#814=DIRECTION('',(-0.709033325165754,-0.705174973892575,0.));
#815=DIRECTION('center_axis',(0.709033325165756,0.705174973892573,0.));
#816=DIRECTION('ref_axis',(-0.705174973892573,0.709033325165756,0.));
#817=DIRECTION('',(-0.705174973892573,0.709033325165756,0.));
#818=DIRECTION('',(0.,0.,1.));
#819=DIRECTION('',(-0.705174973892573,0.709033325165756,0.));
#820=DIRECTION('center_axis',(0.705174973892569,-0.70903332516576,0.));
#821=DIRECTION('ref_axis',(0.70903332516576,0.705174973892569,0.));
#822=DIRECTION('',(0.70903332516576,0.705174973892569,0.));
#823=DIRECTION('',(0.70903332516576,0.705174973892569,0.));
#824=DIRECTION('center_axis',(0.,0.,1.));
#825=DIRECTION('ref_axis',(1.,0.,0.));
#826=DIRECTION('center_axis',(0.,0.,1.));
#827=DIRECTION('ref_axis',(1.,0.,0.));
#828=DIRECTION('',(6.84025876824834E-17,1.,0.));
#829=DIRECTION('',(-1.,-1.36642833800019E-16,0.));
#830=DIRECTION('',(0.,-1.,0.));
#831=DIRECTION('',(1.,0.,0.));
#832=DIRECTION('',(1.,0.,0.));
#833=DIRECTION('',(0.,-1.,0.));
#834=DIRECTION('',(-1.,0.,0.));
#835=DIRECTION('',(0.,1.,0.));
#836=DIRECTION('center_axis',(-1.25524662439963E-16,0.918633337359442,0.395111112842771));
#837=DIRECTION('ref_axis',(0.,-0.395111112842771,0.918633337359442));
#838=DIRECTION('',(-1.,-1.36642833800019E-16,0.));
#839=DIRECTION('',(0.367467675032014,-0.367467675032014,0.854362344449433));
#840=DIRECTION('',(-0.367467675032014,-0.367467675032014,0.854362344449433));
#841=DIRECTION('center_axis',(-0.918633337359442,0.,0.395111112842771));
#842=DIRECTION('ref_axis',(0.395111112842771,0.,0.918633337359442));
#843=DIRECTION('',(0.,-1.,0.));
#844=DIRECTION('',(0.367467675032014,0.367467675032014,0.854362344449433));
#845=DIRECTION('center_axis',(0.,-0.918633337359442,0.395111112842771));
#846=DIRECTION('ref_axis',(0.,-0.395111112842771,-0.918633337359442));
#847=DIRECTION('',(1.,0.,0.));
#848=DIRECTION('',(-0.367467675032014,0.367467675032014,0.854362344449433));
#849=DIRECTION('center_axis',(0.918633337359442,-6.28368974067816E-17,0.395111112842771));
#850=DIRECTION('ref_axis',(0.395111112842771,0.,-0.918633337359442));
#851=DIRECTION('',(6.84025876824834E-17,1.,0.));
#852=DIRECTION('center_axis',(0.,0.,1.));
#853=DIRECTION('ref_axis',(2.18671248444703E-15,1.,0.));
#854=DIRECTION('',(0.,0.,1.));
#855=DIRECTION('center_axis',(0.,0.,1.));
#856=DIRECTION('ref_axis',(2.18671248444703E-15,1.,0.));
#857=DIRECTION('',(0.,0.,1.));
#858=DIRECTION('center_axis',(-1.,6.84025876824834E-17,0.));
#859=DIRECTION('ref_axis',(-6.84025876824834E-17,-1.,0.));
#860=DIRECTION('',(-6.84025876824834E-17,-1.,0.));
#861=DIRECTION('',(0.,0.,1.));
#862=DIRECTION('',(-6.84025876824834E-17,-1.,0.));
#863=DIRECTION('center_axis',(1.,0.,0.));
#864=DIRECTION('ref_axis',(0.,1.,0.));
#865=DIRECTION('',(0.,0.,1.));
#866=DIRECTION('',(0.,1.,0.));
#867=DIRECTION('',(0.,0.,1.));
#868=DIRECTION('center_axis',(0.,-1.,0.));
#869=DIRECTION('ref_axis',(1.,0.,0.));
#870=DIRECTION('',(1.,0.,0.));
#871=DIRECTION('',(0.,0.,1.));
#872=DIRECTION('center_axis',(-1.,0.,0.));
#873=DIRECTION('ref_axis',(0.,-1.,0.));
#874=DIRECTION('',(0.,-1.,0.));
#875=DIRECTION('',(0.,0.,1.));
#876=DIRECTION('center_axis',(0.,1.,0.));
#877=DIRECTION('ref_axis',(-1.,0.,0.));
#878=DIRECTION('',(-1.,0.,0.));
#879=DIRECTION('center_axis',(0.,0.,1.));
#880=DIRECTION('ref_axis',(2.29604810866939E-15,-1.,0.));
#881=DIRECTION('',(0.,0.,1.));
#882=DIRECTION('center_axis',(0.,0.,1.));
#883=DIRECTION('ref_axis',(2.29604810866939E-15,-1.,0.));
#884=DIRECTION('center_axis',(-1.,0.,8.32667268468867E-15));
#885=DIRECTION('ref_axis',(0.,1.,0.));
#886=DIRECTION('',(0.,0.,-1.));
#887=DIRECTION('',(0.,1.,0.));
#888=DIRECTION('',(0.,0.,1.));
#889=DIRECTION('',(0.,-1.,0.));
#890=DIRECTION('center_axis',(0.,0.,1.));
#891=DIRECTION('ref_axis',(1.,0.,0.));
#892=DIRECTION('',(-1.,0.,0.));
#893=DIRECTION('',(1.,1.36642833800019E-16,0.));
#894=DIRECTION('center_axis',(0.,1.,0.));
#895=DIRECTION('ref_axis',(-1.,0.,0.));
#896=DIRECTION('',(1.,0.,0.));
#897=DIRECTION('center_axis',(0.,0.,1.));
#898=DIRECTION('ref_axis',(1.,0.,0.));
#899=DIRECTION('',(-1.,-1.36642833800019E-16,0.));
#900=DIRECTION('center_axis',(1.36642833800019E-16,-1.,0.));
#901=DIRECTION('ref_axis',(1.,1.36642833800019E-16,0.));
#902=CARTESIAN_POINT('',(0.,0.,0.));
#903=CARTESIAN_POINT('Origin',(13.3652870712072,-83.9135783682072,110.));
#904=CARTESIAN_POINT('',(13.3652870712072,-83.9135783682072,110.));
#905=CARTESIAN_POINT('',(16.1859869667775,-86.7497116688702,110.));
#906=CARTESIAN_POINT('',(-10.9358850222889,-59.4794428801524,110.));
#907=CARTESIAN_POINT('',(13.3652870712072,-83.9135783682072,120.));
#908=CARTESIAN_POINT('',(13.3652870712072,-83.9135783682072,110.));
#909=CARTESIAN_POINT('',(16.1859869667775,-86.7497116688702,120.));
#910=CARTESIAN_POINT('',(13.3652870712072,-83.9135783682072,120.));
#911=CARTESIAN_POINT('',(16.1859869667775,-86.7497116688702,110.));
#912=CARTESIAN_POINT('Origin',(16.2014203718702,-81.0928784726369,110.));
#913=CARTESIAN_POINT('',(16.2014203718702,-81.0928784726369,110.));
#914=CARTESIAN_POINT('',(32.4018822794312,-64.9805747243733,110.));
#915=CARTESIAN_POINT('',(16.2014203718702,-81.0928784726369,120.));
#916=CARTESIAN_POINT('',(16.2014203718702,-81.0928784726369,110.));
#917=CARTESIAN_POINT('',(16.2014203718702,-81.0928784726369,120.));
#918=CARTESIAN_POINT('Origin',(19.0221202674405,-83.9290117733,110.));
#919=CARTESIAN_POINT('',(19.0221202674405,-83.9290117733,110.));
#920=CARTESIAN_POINT('',(-6.6894017738407,-58.0768096349135,110.));
#921=CARTESIAN_POINT('',(19.0221202674405,-83.9290117733,120.));
#922=CARTESIAN_POINT('',(19.0221202674405,-83.9290117733,110.));
#923=CARTESIAN_POINT('',(19.0221202674405,-83.9290117733,120.));
#924=CARTESIAN_POINT('Origin',(16.1859869667775,-86.7497116688702,110.));
#925=CARTESIAN_POINT('',(33.8045155246699,-69.2270579728219,110.));
#926=CARTESIAN_POINT('',(16.1859869667775,-86.7497116688702,120.));
#927=CARTESIAN_POINT('Origin',(16.1937036693238,-83.9212950707536,120.));
#928=CARTESIAN_POINT('Origin',(-51.6347129287928,-83.9135783682072,110.));
#929=CARTESIAN_POINT('',(-51.6347129287928,-83.9135783682072,110.));
#930=CARTESIAN_POINT('',(-48.8140130332225,-86.7497116688702,110.));
#931=CARTESIAN_POINT('',(-59.7745533486461,-75.729200968441,110.));
#932=CARTESIAN_POINT('',(-51.6347129287928,-83.9135783682072,120.));
#933=CARTESIAN_POINT('',(-51.6347129287928,-83.9135783682072,110.));
#934=CARTESIAN_POINT('',(-48.8140130332225,-86.7497116688702,120.));
#935=CARTESIAN_POINT('',(-51.6347129287928,-83.9135783682072,120.));
#936=CARTESIAN_POINT('',(-48.8140130332225,-86.7497116688702,110.));
#937=CARTESIAN_POINT('Origin',(-48.7985796281298,-81.0928784726369,110.));
#938=CARTESIAN_POINT('',(-48.7985796281298,-81.0928784726369,110.));
#939=CARTESIAN_POINT('',(-16.2594493942117,-48.7308166360847,110.));
#940=CARTESIAN_POINT('',(-48.7985796281298,-81.0928784726369,120.));
#941=CARTESIAN_POINT('',(-48.7985796281298,-81.0928784726369,110.));
#942=CARTESIAN_POINT('',(-48.7985796281298,-81.0928784726369,120.));
#943=CARTESIAN_POINT('Origin',(-45.9778797325595,-83.9290117733,110.));
#944=CARTESIAN_POINT('',(-45.9778797325595,-83.9290117733,110.));
#945=CARTESIAN_POINT('',(-55.528070100198,-74.3265677232021,110.));
#946=CARTESIAN_POINT('',(-45.9778797325595,-83.9290117733,120.));
#947=CARTESIAN_POINT('',(-45.9778797325595,-83.9290117733,110.));
#948=CARTESIAN_POINT('',(-45.9778797325595,-83.9290117733,120.));
#949=CARTESIAN_POINT('Origin',(-48.8140130332225,-86.7497116688702,110.));
#950=CARTESIAN_POINT('',(-14.8568161489726,-52.9772998845333,110.));
#951=CARTESIAN_POINT('',(-48.8140130332225,-86.7497116688702,120.));
#952=CARTESIAN_POINT('Origin',(-48.8062963306762,-83.9212950707536,120.));
#953=CARTESIAN_POINT('Origin',(13.3652870712072,84.0864216317928,110.));
#954=CARTESIAN_POINT('',(13.3652870712072,84.0864216317928,110.));
#955=CARTESIAN_POINT('',(16.1859869667775,81.2502883311298,110.));
#956=CARTESIAN_POINT('',(31.0634897289801,66.2913835994168,110.));
#957=CARTESIAN_POINT('',(13.3652870712072,84.0864216317928,120.));
#958=CARTESIAN_POINT('',(13.3652870712072,84.0864216317928,110.));
#959=CARTESIAN_POINT('',(16.1859869667775,81.2502883311298,120.));
#960=CARTESIAN_POINT('',(13.3652870712072,84.0864216317928,120.));
#961=CARTESIAN_POINT('',(16.1859869667775,81.2502883311298,110.));
#962=CARTESIAN_POINT('Origin',(16.2014203718702,86.9071215273631,110.));
#963=CARTESIAN_POINT('',(16.2014203718702,86.9071215273631,110.));
#964=CARTESIAN_POINT('',(-9.59749247183785,61.2485987960575,110.));
#965=CARTESIAN_POINT('',(16.2014203718702,86.9071215273631,120.));
#966=CARTESIAN_POINT('',(16.2014203718702,86.9071215273631,110.));
#967=CARTESIAN_POINT('',(16.2014203718702,86.9071215273631,120.));
#968=CARTESIAN_POINT('Origin',(19.0221202674405,84.0709882267,110.));
#969=CARTESIAN_POINT('',(19.0221202674405,84.0709882267,110.));
#970=CARTESIAN_POINT('',(35.3099729774283,67.6940168446554,110.));
#971=CARTESIAN_POINT('',(19.0221202674405,84.0709882267,120.));
#972=CARTESIAN_POINT('',(19.0221202674405,84.0709882267,110.));
#973=CARTESIAN_POINT('',(19.0221202674405,84.0709882267,120.));
#974=CARTESIAN_POINT('Origin',(16.1859869667775,81.2502883311298,110.));
#975=CARTESIAN_POINT('',(-8.19485922659913,57.0021155476098,110.));
#976=CARTESIAN_POINT('',(16.1859869667775,81.2502883311298,120.));
#977=CARTESIAN_POINT('Origin',(16.1937036693238,84.0787049292464,120.));
#978=CARTESIAN_POINT('Origin',(-51.6347129287928,84.0864216317928,110.));
#979=CARTESIAN_POINT('',(-51.6347129287928,84.0864216317928,110.));
#980=CARTESIAN_POINT('',(-48.8140130332225,81.2502883311298,110.));
#981=CARTESIAN_POINT('',(-17.7751785973771,50.0416255111282,110.));
#982=CARTESIAN_POINT('',(-51.6347129287928,84.0864216317928,120.));
#983=CARTESIAN_POINT('',(-51.6347129287928,84.0864216317928,110.));
#984=CARTESIAN_POINT('',(-48.8140130332225,81.2502883311298,120.));
#985=CARTESIAN_POINT('',(-51.6347129287928,84.0864216317928,120.));
#986=CARTESIAN_POINT('',(-48.8140130332225,81.2502883311298,110.));
#987=CARTESIAN_POINT('Origin',(-48.7985796281298,86.9071215273631,110.));
#988=CARTESIAN_POINT('',(-48.7985796281298,86.9071215273631,110.));
#989=CARTESIAN_POINT('',(-58.2588241454807,77.4983568843462,110.));
#990=CARTESIAN_POINT('',(-48.7985796281298,86.9071215273631,120.));
#991=CARTESIAN_POINT('',(-48.7985796281298,86.9071215273631,110.));
#992=CARTESIAN_POINT('',(-48.7985796281298,86.9071215273631,120.));
#993=CARTESIAN_POINT('Origin',(-45.9778797325595,84.0709882267,110.));
#994=CARTESIAN_POINT('',(-45.9778797325595,84.0709882267,110.));
#995=CARTESIAN_POINT('',(-13.528695348929,51.4442587563668,110.));
#996=CARTESIAN_POINT('',(-45.9778797325595,84.0709882267,120.));
#997=CARTESIAN_POINT('',(-45.9778797325595,84.0709882267,110.));
#998=CARTESIAN_POINT('',(-45.9778797325595,84.0709882267,120.));
#999=CARTESIAN_POINT('Origin',(-48.8140130332225,81.2502883311298,110.));
#1000=CARTESIAN_POINT('',(-56.8561909002416,73.2518736358984,110.));
#1001=CARTESIAN_POINT('',(-48.8140130332225,81.2502883311298,120.));
#1002=CARTESIAN_POINT('Origin',(-48.8062963306762,84.0787049292464,120.));
#1003=CARTESIAN_POINT('Origin',(-8.88178419700125E-15,1.77635683940025E-14,
125.));
#1004=CARTESIAN_POINT('',(-26.4408602150538,-44.0735582859002,125.));
#1005=CARTESIAN_POINT('',(-26.4408602150538,44.0735582859003,125.));
#1006=CARTESIAN_POINT('',(-26.4408602150538,20.6388912528545,125.));
#1007=CARTESIAN_POINT('',(11.4408602150537,-44.0735582859002,125.));
#1008=CARTESIAN_POINT('',(-16.25,-44.0735582859002,125.));
#1009=CARTESIAN_POINT('',(11.4408602150537,44.0735582859003,125.));
#1010=CARTESIAN_POINT('',(11.4408602150537,-20.6388912528544,125.));
#1011=CARTESIAN_POINT('',(16.25,44.0735582859003,125.));
#1012=CARTESIAN_POINT('',(-5.50000000000001,11.,125.));
#1013=CARTESIAN_POINT('',(-4.5,11.,125.));
#1014=CARTESIAN_POINT('',(-2.25000000000001,11.,125.));
#1015=CARTESIAN_POINT('',(-4.5,-11.,125.));
#1016=CARTESIAN_POINT('',(-4.5,-5.49999999999998,125.));
#1017=CARTESIAN_POINT('',(-5.50000000000001,-11.,125.));
#1018=CARTESIAN_POINT('',(-2.75000000000001,-11.,125.));
#1019=CARTESIAN_POINT('',(-5.50000000000001,5.50000000000002,125.));
#1020=CARTESIAN_POINT('Origin',(-32.5,-60.6326980708465,163.5));
#1021=CARTESIAN_POINT('',(48.,-80.6326980708465,210.));
#1022=CARTESIAN_POINT('',(-63.,-80.6326980708465,210.));
#1023=CARTESIAN_POINT('',(-32.5,-80.6326980708465,210.));
#1024=CARTESIAN_POINT('',(7.99999999999998,-40.6326980708465,117.));
#1025=CARTESIAN_POINT('',(-23.,-40.6326980708465,117.));
#1026=CARTESIAN_POINT('Origin',(28.,-41.2777825057089,163.5));
#1027=CARTESIAN_POINT('',(48.,80.6326980708465,210.));
#1028=CARTESIAN_POINT('',(48.,-41.2777825057089,210.));
#1029=CARTESIAN_POINT('',(7.99999999999998,40.6326980708465,117.));
#1030=CARTESIAN_POINT('Origin',(32.5,60.6326980708465,163.5));
#1031=CARTESIAN_POINT('',(-63.,80.6326980708465,210.));
#1032=CARTESIAN_POINT('',(32.5,80.6326980708465,210.));
#1033=CARTESIAN_POINT('',(-23.,40.6326980708465,117.));
#1034=CARTESIAN_POINT('Origin',(-43.,41.2777825057089,163.5));
#1035=CARTESIAN_POINT('',(-63.,41.2777825057089,210.));
#1036=CARTESIAN_POINT('Ctrl Pts',(-65.,87.6326980708465,110.));
#1037=CARTESIAN_POINT('Ctrl Pts',(-70.,87.6326980708465,110.));
#1038=CARTESIAN_POINT('Ctrl Pts',(-70.,82.5555650114178,110.));
#1039=CARTESIAN_POINT('Ctrl Pts',(-65.,87.6326980708465,210.));
#1040=CARTESIAN_POINT('Ctrl Pts',(-70.,87.6326980708465,210.));
#1041=CARTESIAN_POINT('Ctrl Pts',(-70.,82.5555650114178,210.));
#1042=CARTESIAN_POINT('',(-65.,87.6326980708465,110.));
#1043=CARTESIAN_POINT('',(-70.,82.5555650114178,110.));
#1044=CARTESIAN_POINT('Origin',(-65.,82.5555650114178,110.));
#1045=CARTESIAN_POINT('',(-70.,82.5555650114178,210.));
#1046=CARTESIAN_POINT('',(-70.,82.5555650114178,110.));
#1047=CARTESIAN_POINT('',(-65.,87.6326980708465,210.));
#1048=CARTESIAN_POINT('Origin',(-65.,82.5555650114178,210.));
#1049=CARTESIAN_POINT('',(-65.,87.6326980708465,110.));
#1050=CARTESIAN_POINT('Origin',(-70.,82.5555650114178,110.));
#1051=CARTESIAN_POINT('',(-70.,-82.5555650114178,110.));
#1052=CARTESIAN_POINT('',(-70.,64.9228669405713,110.));
#1053=CARTESIAN_POINT('',(-70.,-82.5555650114178,210.));
#1054=CARTESIAN_POINT('',(-70.,-82.5555650114178,110.));
#1055=CARTESIAN_POINT('',(-70.,64.9228669405713,210.));
#1056=CARTESIAN_POINT('Origin',(-4.5,-11.,110.));
#1057=CARTESIAN_POINT('',(-4.5,11.,110.));
#1058=CARTESIAN_POINT('',(-4.5,11.,110.));
#1059=CARTESIAN_POINT('',(-4.5,-11.,110.));
#1060=CARTESIAN_POINT('',(-4.5,-5.49999999999998,110.));
#1061=CARTESIAN_POINT('',(-4.5,-11.,110.));
#1062=CARTESIAN_POINT('Origin',(-5.50000000000001,-11.,110.));
#1063=CARTESIAN_POINT('',(-5.50000000000001,-11.,110.));
#1064=CARTESIAN_POINT('',(-2.75000000000001,-11.,110.));
#1065=CARTESIAN_POINT('',(-5.50000000000001,-11.,110.));
#1066=CARTESIAN_POINT('Origin',(-5.50000000000001,11.,110.));
#1067=CARTESIAN_POINT('',(-5.50000000000001,11.,110.));
#1068=CARTESIAN_POINT('',(-5.50000000000001,5.50000000000002,110.));
#1069=CARTESIAN_POINT('',(-5.50000000000001,11.,110.));
#1070=CARTESIAN_POINT('Origin',(-4.5,11.,110.));
#1071=CARTESIAN_POINT('',(-2.25000000000001,11.,110.));
#1072=CARTESIAN_POINT('Ctrl Pts',(-70.,-82.5555650114178,110.));
#1073=CARTESIAN_POINT('Ctrl Pts',(-70.,-87.6326980708465,110.));
#1074=CARTESIAN_POINT('Ctrl Pts',(-65.,-87.6326980708465,110.));
#1075=CARTESIAN_POINT('Ctrl Pts',(-70.,-82.5555650114178,210.));
#1076=CARTESIAN_POINT('Ctrl Pts',(-70.,-87.6326980708465,210.));
#1077=CARTESIAN_POINT('Ctrl Pts',(-65.,-87.6326980708465,210.));
#1078=CARTESIAN_POINT('',(-65.,-87.6326980708465,110.));
#1079=CARTESIAN_POINT('Origin',(-65.,-82.5555650114178,110.));
#1080=CARTESIAN_POINT('',(-65.,-87.6326980708465,210.));
#1081=CARTESIAN_POINT('',(-65.,-87.6326980708465,110.));
#1082=CARTESIAN_POINT('Origin',(-65.,-82.5555650114178,210.));
#1083=CARTESIAN_POINT('Origin',(55.0000000000001,-9.99999999999998,214.408174517712));
#1084=CARTESIAN_POINT('',(55.,-87.6326980708465,210.));
#1085=CARTESIAN_POINT('',(55.,-87.6326980708465,110.));
#1086=CARTESIAN_POINT('',(55.,-87.6326980708465,135.));
#1087=CARTESIAN_POINT('',(55.,87.6326980708465,110.));
#1088=CARTESIAN_POINT('',(55.,8.88178419700125E-15,110.));
#1089=CARTESIAN_POINT('',(55.,87.6326980708465,210.));
#1090=CARTESIAN_POINT('',(55.,87.6326980708465,135.));
#1091=CARTESIAN_POINT('',(55.,8.88178419700125E-15,210.));
#1092=CARTESIAN_POINT('Origin',(-8.88178419700125E-15,1.77635683940025E-14,
210.));
#1093=CARTESIAN_POINT('',(-65.,87.6326980708465,210.));
#1094=CARTESIAN_POINT('',(65.,-87.6326980708465,210.));
#1095=CARTESIAN_POINT('Origin',(65.,87.6326980708465,110.));
#1096=CARTESIAN_POINT('',(-65.,87.6326980708465,110.));
#1097=CARTESIAN_POINT('Origin',(-8.88178419700125E-15,1.77635683940025E-14,
110.));
#1098=CARTESIAN_POINT('',(65.,-87.6326980708465,110.));
#1099=CARTESIAN_POINT('Origin',(-65.,-87.6326980708465,110.));
#1100=UNCERTAINTY_MEASURE_WITH_UNIT(LENGTH_MEASURE(0.01),#1104,
'DISTANCE_ACCURACY_VALUE',
'Maximum model space distance between geometric entities at asserted c
onnectivities');
#1101=UNCERTAINTY_MEASURE_WITH_UNIT(LENGTH_MEASURE(0.01),#1104,
'DISTANCE_ACCURACY_VALUE',
'Maximum model space distance between geometric entities at asserted c
onnectivities');
#1102=(
GEOMETRIC_REPRESENTATION_CONTEXT(3)
GLOBAL_UNCERTAINTY_ASSIGNED_CONTEXT((#1100))
GLOBAL_UNIT_ASSIGNED_CONTEXT((#1104,#1106,#1107))
REPRESENTATION_CONTEXT('','3D')
);
#1103=(
GEOMETRIC_REPRESENTATION_CONTEXT(3)
GLOBAL_UNCERTAINTY_ASSIGNED_CONTEXT((#1101))
GLOBAL_UNIT_ASSIGNED_CONTEXT((#1104,#1106,#1107))
REPRESENTATION_CONTEXT('','3D')
);
#1104=(
LENGTH_UNIT()
NAMED_UNIT(*)
SI_UNIT(.MILLI.,.METRE.)
);
#1105=(
LENGTH_UNIT()
NAMED_UNIT(*)
SI_UNIT($,.METRE.)
);
#1106=(
NAMED_UNIT(*)
PLANE_ANGLE_UNIT()
SI_UNIT($,.RADIAN.)
);
#1107=(
NAMED_UNIT(*)
SI_UNIT($,.STERADIAN.)
SOLID_ANGLE_UNIT()
);
#1108=SHAPE_DEFINITION_REPRESENTATION(#1109,#1110);
#1109=PRODUCT_DEFINITION_SHAPE('',$,#1112);
#1110=SHAPE_REPRESENTATION('',(#696),#1102);
#1111=PRODUCT_DEFINITION_CONTEXT('part definition',#1116,'design');
#1112=PRODUCT_DEFINITION('2025-10-23-22-58-24-166','top_pot',#1113,#1111);
#1113=PRODUCT_DEFINITION_FORMATION('',$,#1118);
#1114=PRODUCT_RELATED_PRODUCT_CATEGORY('top_pot','top_pot',(#1118));
#1115=APPLICATION_PROTOCOL_DEFINITION('international standard',
'automotive_design',2009,#1116);
#1116=APPLICATION_CONTEXT(
'Core Data for Automotive Mechanical Design Process');
#1117=PRODUCT_CONTEXT('part definition',#1116,'mechanical');
#1118=PRODUCT('2025-10-23-22-58-24-166','top_pot',$,(#1117));
#1119=PRESENTATION_STYLE_ASSIGNMENT((#1120));
#1120=SURFACE_STYLE_USAGE(.BOTH.,#1121);
#1121=SURFACE_SIDE_STYLE('',(#1122));
#1122=SURFACE_STYLE_FILL_AREA(#1123);
#1123=FILL_AREA_STYLE('Steel - Satin',(#1124));
#1124=FILL_AREA_STYLE_COLOUR('Steel - Satin',#1125);
#1125=COLOUR_RGB('Steel - Satin',0.627450980392157,0.627450980392157,0.627450980392157);
ENDSEC;
END-ISO-10303-21;
