ISO-10303-21;
HEADER;
/* Generated by software containing ST-Developer
 * from STEP Tools, Inc. (www.steptools.com) 
 */

FILE_DESCRIPTION(
/* description */ (''),
/* implementation_level */ '2;1');

FILE_NAME(
/* name */ 'P4-plant_stand.step',
/* time_stamp */ '2025-10-23T22:58:56+05:30',
/* author */ (''),
/* organization */ (''),
/* preprocessor_version */ 'ST-DEVELOPER v20.1',
/* originating_system */ 'Autodesk Translation Framework v14.17.0.0',
/* authorisation */ '');

FILE_SCHEMA (('AUTOMOTIVE_DESIGN { 1 0 10303 214 3 1 1 }'));
ENDSEC;

DATA;
#10=MECHANICAL_DESIGN_GEOMETRIC_PRESENTATION_REPRESENTATION('',(#13),#547);
#11=SHAPE_REPRESENTATION_RELATIONSHIP('SRR','None',#554,#12);
#12=ADVANCED_BREP_SHAPE_REPRESENTATION('',(#14),#546);
#13=STYLED_ITEM('',(#563),#14);
#14=MANIFOLD_SOLID_BREP('Body1',#291);
#15=PLANE('',#333);
#16=PLANE('',#334);
#17=PLANE('',#335);
#18=PLANE('',#336);
#19=PLANE('',#337);
#20=PLANE('',#338);
#21=LINE('',#451,#41);
#22=LINE('',#452,#42);
#23=LINE('',#474,#43);
#24=LINE('',#475,#44);
#25=LINE('',#477,#45);
#26=LINE('',#478,#46);
#27=LINE('',#500,#47);
#28=LINE('',#501,#48);
#29=LINE('',#523,#49);
#30=LINE('',#524,#50);
#31=LINE('',#526,#51);
#32=LINE('',#527,#52);
#33=LINE('',#529,#53);
#34=LINE('',#530,#54);
#35=LINE('',#532,#55);
#36=LINE('',#533,#56);
#37=LINE('',#535,#57);
#38=LINE('',#537,#58);
#39=LINE('',#540,#59);
#40=LINE('',#542,#60);
#41=VECTOR('',#353,10.);
#42=VECTOR('',#354,10.);
#43=VECTOR('',#367,10.);
#44=VECTOR('',#368,10.);
#45=VECTOR('',#371,10.);
#46=VECTOR('',#372,10.);
#47=VECTOR('',#385,10.);
#48=VECTOR('',#386,10.);
#49=VECTOR('',#399,10.);
#50=VECTOR('',#400,10.);
#51=VECTOR('',#403,10.);
#52=VECTOR('',#404,10.);
#53=VECTOR('',#407,10.);
#54=VECTOR('',#408,10.);
#55=VECTOR('',#411,10.);
#56=VECTOR('',#412,10.);
#57=VECTOR('',#415,10.);
#58=VECTOR('',#418,10.);
#59=VECTOR('',#423,10.);
#60=VECTOR('',#426,10.);
#61=CYLINDRICAL_SURFACE('',#309,10.);
#62=CYLINDRICAL_SURFACE('',#315,10.);
#63=CYLINDRICAL_SURFACE('',#317,5.);
#64=CYLINDRICAL_SURFACE('',#322,10.);
#65=CYLINDRICAL_SURFACE('',#328,10.);
#66=CYLINDRICAL_SURFACE('',#330,5.);
#67=CYLINDRICAL_SURFACE('',#331,5.);
#68=CYLINDRICAL_SURFACE('',#332,5.);
#69=FACE_OUTER_BOUND('',#87,.T.);
#70=FACE_OUTER_BOUND('',#88,.T.);
#71=FACE_OUTER_BOUND('',#89,.T.);
#72=FACE_OUTER_BOUND('',#90,.T.);
#73=FACE_OUTER_BOUND('',#91,.T.);
#74=FACE_OUTER_BOUND('',#92,.T.);
#75=FACE_OUTER_BOUND('',#93,.T.);
#76=FACE_OUTER_BOUND('',#94,.T.);
#77=FACE_OUTER_BOUND('',#95,.T.);
#78=FACE_OUTER_BOUND('',#96,.T.);
#79=FACE_OUTER_BOUND('',#97,.T.);
#80=FACE_OUTER_BOUND('',#98,.T.);
#81=FACE_OUTER_BOUND('',#99,.T.);
#82=FACE_OUTER_BOUND('',#100,.T.);
#83=FACE_OUTER_BOUND('',#101,.T.);
#84=FACE_OUTER_BOUND('',#102,.T.);
#85=FACE_OUTER_BOUND('',#103,.T.);
#86=FACE_OUTER_BOUND('',#104,.T.);
#87=EDGE_LOOP('',(#189,#190,#191,#192));
#88=EDGE_LOOP('',(#193,#194,#195,#196));
#89=EDGE_LOOP('',(#197,#198,#199,#200));
#90=EDGE_LOOP('',(#201,#202,#203,#204));
#91=EDGE_LOOP('',(#205,#206,#207,#208));
#92=EDGE_LOOP('',(#209,#210,#211,#212));
#93=EDGE_LOOP('',(#213,#214,#215,#216));
#94=EDGE_LOOP('',(#217,#218,#219,#220));
#95=EDGE_LOOP('',(#221,#222,#223,#224));
#96=EDGE_LOOP('',(#225,#226,#227,#228));
#97=EDGE_LOOP('',(#229,#230,#231,#232));
#98=EDGE_LOOP('',(#233,#234,#235,#236));
#99=EDGE_LOOP('',(#237,#238,#239,#240));
#100=EDGE_LOOP('',(#241,#242,#243,#244));
#101=EDGE_LOOP('',(#245,#246,#247,#248,#249,#250,#251,#252));
#102=EDGE_LOOP('',(#253,#254,#255,#256));
#103=EDGE_LOOP('',(#257,#258,#259,#260));
#104=EDGE_LOOP('',(#261,#262,#263,#264,#265,#266,#267,#268));
#105=CIRCLE('',#305,5.);
#106=CIRCLE('',#306,9.99999999999999);
#107=CIRCLE('',#307,5.);
#108=CIRCLE('',#308,5.);
#109=CIRCLE('',#310,10.);
#110=CIRCLE('',#311,5.);
#111=CIRCLE('',#312,10.);
#112=CIRCLE('',#313,5.);
#113=CIRCLE('',#314,4.99999999999999);
#114=CIRCLE('',#316,10.);
#115=CIRCLE('',#318,4.99999999999999);
#116=CIRCLE('',#319,10.);
#117=CIRCLE('',#320,5.);
#118=CIRCLE('',#321,5.);
#119=CIRCLE('',#323,10.);
#120=CIRCLE('',#324,5.);
#121=CIRCLE('',#325,10.);
#122=CIRCLE('',#326,5.);
#123=CIRCLE('',#327,5.);
#124=CIRCLE('',#329,10.);
#125=VERTEX_POINT('',#439);
#126=VERTEX_POINT('',#440);
#127=VERTEX_POINT('',#442);
#128=VERTEX_POINT('',#444);
#129=VERTEX_POINT('',#448);
#130=VERTEX_POINT('',#449);
#131=VERTEX_POINT('',#462);
#132=VERTEX_POINT('',#463);
#133=VERTEX_POINT('',#465);
#134=VERTEX_POINT('',#467);
#135=VERTEX_POINT('',#471);
#136=VERTEX_POINT('',#472);
#137=VERTEX_POINT('',#488);
#138=VERTEX_POINT('',#489);
#139=VERTEX_POINT('',#491);
#140=VERTEX_POINT('',#493);
#141=VERTEX_POINT('',#497);
#142=VERTEX_POINT('',#498);
#143=VERTEX_POINT('',#511);
#144=VERTEX_POINT('',#512);
#145=VERTEX_POINT('',#514);
#146=VERTEX_POINT('',#516);
#147=VERTEX_POINT('',#520);
#148=VERTEX_POINT('',#521);
#149=EDGE_CURVE('',#125,#126,#105,.T.);
#150=EDGE_CURVE('',#127,#125,#106,.F.);
#151=EDGE_CURVE('',#128,#127,#107,.T.);
#152=EDGE_CURVE('',#128,#126,#108,.T.);
#153=EDGE_CURVE('',#129,#130,#109,.T.);
#154=EDGE_CURVE('',#130,#127,#21,.T.);
#155=EDGE_CURVE('',#125,#129,#22,.T.);
#156=EDGE_CURVE('',#131,#132,#110,.T.);
#157=EDGE_CURVE('',#133,#131,#111,.F.);
#158=EDGE_CURVE('',#134,#133,#112,.T.);
#159=EDGE_CURVE('',#134,#132,#113,.T.);
#160=EDGE_CURVE('',#135,#136,#114,.T.);
#161=EDGE_CURVE('',#136,#133,#23,.T.);
#162=EDGE_CURVE('',#131,#135,#24,.T.);
#163=EDGE_CURVE('',#126,#134,#25,.T.);
#164=EDGE_CURVE('',#133,#125,#26,.T.);
#165=EDGE_CURVE('',#137,#138,#115,.T.);
#166=EDGE_CURVE('',#139,#137,#116,.F.);
#167=EDGE_CURVE('',#140,#139,#117,.T.);
#168=EDGE_CURVE('',#140,#138,#118,.T.);
#169=EDGE_CURVE('',#141,#142,#119,.T.);
#170=EDGE_CURVE('',#142,#139,#27,.T.);
#171=EDGE_CURVE('',#137,#141,#28,.T.);
#172=EDGE_CURVE('',#143,#144,#120,.T.);
#173=EDGE_CURVE('',#145,#143,#121,.F.);
#174=EDGE_CURVE('',#146,#145,#122,.T.);
#175=EDGE_CURVE('',#146,#144,#123,.T.);
#176=EDGE_CURVE('',#147,#148,#124,.T.);
#177=EDGE_CURVE('',#148,#145,#29,.T.);
#178=EDGE_CURVE('',#143,#147,#30,.T.);
#179=EDGE_CURVE('',#132,#146,#31,.T.);
#180=EDGE_CURVE('',#145,#131,#32,.T.);
#181=EDGE_CURVE('',#144,#140,#33,.T.);
#182=EDGE_CURVE('',#139,#143,#34,.T.);
#183=EDGE_CURVE('',#138,#128,#35,.T.);
#184=EDGE_CURVE('',#127,#137,#36,.T.);
#185=EDGE_CURVE('',#136,#129,#37,.T.);
#186=EDGE_CURVE('',#148,#135,#38,.T.);
#187=EDGE_CURVE('',#142,#147,#39,.T.);
#188=EDGE_CURVE('',#130,#141,#40,.T.);
#189=ORIENTED_EDGE('',*,*,#149,.F.);
#190=ORIENTED_EDGE('',*,*,#150,.F.);
#191=ORIENTED_EDGE('',*,*,#151,.F.);
#192=ORIENTED_EDGE('',*,*,#152,.T.);
#193=ORIENTED_EDGE('',*,*,#153,.T.);
#194=ORIENTED_EDGE('',*,*,#154,.T.);
#195=ORIENTED_EDGE('',*,*,#150,.T.);
#196=ORIENTED_EDGE('',*,*,#155,.T.);
#197=ORIENTED_EDGE('',*,*,#156,.F.);
#198=ORIENTED_EDGE('',*,*,#157,.F.);
#199=ORIENTED_EDGE('',*,*,#158,.F.);
#200=ORIENTED_EDGE('',*,*,#159,.T.);
#201=ORIENTED_EDGE('',*,*,#160,.T.);
#202=ORIENTED_EDGE('',*,*,#161,.T.);
#203=ORIENTED_EDGE('',*,*,#157,.T.);
#204=ORIENTED_EDGE('',*,*,#162,.T.);
#205=ORIENTED_EDGE('',*,*,#149,.T.);
#206=ORIENTED_EDGE('',*,*,#163,.T.);
#207=ORIENTED_EDGE('',*,*,#158,.T.);
#208=ORIENTED_EDGE('',*,*,#164,.T.);
#209=ORIENTED_EDGE('',*,*,#165,.F.);
#210=ORIENTED_EDGE('',*,*,#166,.F.);
#211=ORIENTED_EDGE('',*,*,#167,.F.);
#212=ORIENTED_EDGE('',*,*,#168,.T.);
#213=ORIENTED_EDGE('',*,*,#169,.T.);
#214=ORIENTED_EDGE('',*,*,#170,.T.);
#215=ORIENTED_EDGE('',*,*,#166,.T.);
#216=ORIENTED_EDGE('',*,*,#171,.T.);
#217=ORIENTED_EDGE('',*,*,#172,.F.);
#218=ORIENTED_EDGE('',*,*,#173,.F.);
#219=ORIENTED_EDGE('',*,*,#174,.F.);
#220=ORIENTED_EDGE('',*,*,#175,.T.);
#221=ORIENTED_EDGE('',*,*,#176,.T.);
#222=ORIENTED_EDGE('',*,*,#177,.T.);
#223=ORIENTED_EDGE('',*,*,#173,.T.);
#224=ORIENTED_EDGE('',*,*,#178,.T.);
#225=ORIENTED_EDGE('',*,*,#156,.T.);
#226=ORIENTED_EDGE('',*,*,#179,.T.);
#227=ORIENTED_EDGE('',*,*,#174,.T.);
#228=ORIENTED_EDGE('',*,*,#180,.T.);
#229=ORIENTED_EDGE('',*,*,#172,.T.);
#230=ORIENTED_EDGE('',*,*,#181,.T.);
#231=ORIENTED_EDGE('',*,*,#167,.T.);
#232=ORIENTED_EDGE('',*,*,#182,.T.);
#233=ORIENTED_EDGE('',*,*,#165,.T.);
#234=ORIENTED_EDGE('',*,*,#183,.T.);
#235=ORIENTED_EDGE('',*,*,#151,.T.);
#236=ORIENTED_EDGE('',*,*,#184,.T.);
#237=ORIENTED_EDGE('',*,*,#155,.F.);
#238=ORIENTED_EDGE('',*,*,#164,.F.);
#239=ORIENTED_EDGE('',*,*,#161,.F.);
#240=ORIENTED_EDGE('',*,*,#185,.T.);
#241=ORIENTED_EDGE('',*,*,#162,.F.);
#242=ORIENTED_EDGE('',*,*,#180,.F.);
#243=ORIENTED_EDGE('',*,*,#177,.F.);
#244=ORIENTED_EDGE('',*,*,#186,.T.);
#245=ORIENTED_EDGE('',*,*,#175,.F.);
#246=ORIENTED_EDGE('',*,*,#179,.F.);
#247=ORIENTED_EDGE('',*,*,#159,.F.);
#248=ORIENTED_EDGE('',*,*,#163,.F.);
#249=ORIENTED_EDGE('',*,*,#152,.F.);
#250=ORIENTED_EDGE('',*,*,#183,.F.);
#251=ORIENTED_EDGE('',*,*,#168,.F.);
#252=ORIENTED_EDGE('',*,*,#181,.F.);
#253=ORIENTED_EDGE('',*,*,#170,.F.);
#254=ORIENTED_EDGE('',*,*,#187,.T.);
#255=ORIENTED_EDGE('',*,*,#178,.F.);
#256=ORIENTED_EDGE('',*,*,#182,.F.);
#257=ORIENTED_EDGE('',*,*,#154,.F.);
#258=ORIENTED_EDGE('',*,*,#188,.T.);
#259=ORIENTED_EDGE('',*,*,#171,.F.);
#260=ORIENTED_EDGE('',*,*,#184,.F.);
#261=ORIENTED_EDGE('',*,*,#153,.F.);
#262=ORIENTED_EDGE('',*,*,#185,.F.);
#263=ORIENTED_EDGE('',*,*,#160,.F.);
#264=ORIENTED_EDGE('',*,*,#186,.F.);
#265=ORIENTED_EDGE('',*,*,#176,.F.);
#266=ORIENTED_EDGE('',*,*,#187,.F.);
#267=ORIENTED_EDGE('',*,*,#169,.F.);
#268=ORIENTED_EDGE('',*,*,#188,.F.);
#269=(
BOUNDED_SURFACE()
B_SPLINE_SURFACE(2,2,((#430,#431,#432),(#433,#434,#435),(#436,#437,#438)),
 .UNSPECIFIED.,.F.,.F.,.F.)
B_SPLINE_SURFACE_WITH_KNOTS((3,3),(3,3),(0.,1.5707963267949),(0.,1.5707963267949),
 .UNSPECIFIED.)
GEOMETRIC_REPRESENTATION_ITEM()
RATIONAL_B_SPLINE_SURFACE(((1.,0.707106781186548,1.),(0.707106781186548,
0.5,0.707106781186548),(1.,0.707106781186548,1.)))
REPRESENTATION_ITEM('')
SURFACE()
);
#270=(
BOUNDED_SURFACE()
B_SPLINE_SURFACE(2,2,((#453,#454,#455),(#456,#457,#458),(#459,#460,#461)),
 .UNSPECIFIED.,.F.,.F.,.F.)
B_SPLINE_SURFACE_WITH_KNOTS((3,3),(3,3),(0.,1.5707963267949),(-1.5707963267949,
0.),.UNSPECIFIED.)
GEOMETRIC_REPRESENTATION_ITEM()
RATIONAL_B_SPLINE_SURFACE(((1.,0.707106781186547,1.),(0.707106781186545,
0.499999999999998,0.707106781186545),(1.,0.707106781186547,1.)))
REPRESENTATION_ITEM('')
SURFACE()
);
#271=(
BOUNDED_SURFACE()
B_SPLINE_SURFACE(2,2,((#479,#480,#481),(#482,#483,#484),(#485,#486,#487)),
 .UNSPECIFIED.,.F.,.F.,.F.)
B_SPLINE_SURFACE_WITH_KNOTS((3,3),(3,3),(0.,1.5707963267949),(1.5707963267949,
3.14159265358979),.UNSPECIFIED.)
GEOMETRIC_REPRESENTATION_ITEM()
RATIONAL_B_SPLINE_SURFACE(((1.,0.707106781186547,1.),(0.707106781186548,
0.5,0.707106781186548),(1.,0.707106781186547,1.)))
REPRESENTATION_ITEM('')
SURFACE()
);
#272=(
BOUNDED_SURFACE()
B_SPLINE_SURFACE(2,2,((#502,#503,#504),(#505,#506,#507),(#508,#509,#510)),
 .UNSPECIFIED.,.F.,.F.,.F.)
B_SPLINE_SURFACE_WITH_KNOTS((3,3),(3,3),(0.,1.5707963267949),(-3.14159265358979,
-1.5707963267949),.UNSPECIFIED.)
GEOMETRIC_REPRESENTATION_ITEM()
RATIONAL_B_SPLINE_SURFACE(((1.,0.707106781186548,1.),(0.707106781186548,
0.5,0.707106781186548),(1.,0.707106781186548,1.)))
REPRESENTATION_ITEM('')
SURFACE()
);
#273=ADVANCED_FACE('',(#69),#269,.F.);
#274=ADVANCED_FACE('',(#70),#61,.T.);
#275=ADVANCED_FACE('',(#71),#270,.F.);
#276=ADVANCED_FACE('',(#72),#62,.T.);
#277=ADVANCED_FACE('',(#73),#63,.T.);
#278=ADVANCED_FACE('',(#74),#271,.F.);
#279=ADVANCED_FACE('',(#75),#64,.T.);
#280=ADVANCED_FACE('',(#76),#272,.F.);
#281=ADVANCED_FACE('',(#77),#65,.T.);
#282=ADVANCED_FACE('',(#78),#66,.T.);
#283=ADVANCED_FACE('',(#79),#67,.T.);
#284=ADVANCED_FACE('',(#80),#68,.T.);
#285=ADVANCED_FACE('',(#81),#15,.T.);
#286=ADVANCED_FACE('',(#82),#16,.T.);
#287=ADVANCED_FACE('',(#83),#17,.T.);
#288=ADVANCED_FACE('',(#84),#18,.T.);
#289=ADVANCED_FACE('',(#85),#19,.T.);
#290=ADVANCED_FACE('',(#86),#20,.F.);
#291=CLOSED_SHELL('',(#273,#274,#275,#276,#277,#278,#279,#280,#281,#282,
#283,#284,#285,#286,#287,#288,#289,#290));
#292=DERIVED_UNIT_ELEMENT(#294,1.);
#293=DERIVED_UNIT_ELEMENT(#549,-3.);
#294=(
MASS_UNIT()
NAMED_UNIT(*)
SI_UNIT(.KILO.,.GRAM.)
);
#295=DERIVED_UNIT((#292,#293));
#296=MEASURE_REPRESENTATION_ITEM('density measure',
POSITIVE_RATIO_MEASURE(7850.),#295);
#297=PROPERTY_DEFINITION_REPRESENTATION(#302,#299);
#298=PROPERTY_DEFINITION_REPRESENTATION(#303,#300);
#299=REPRESENTATION('material name',(#301),#546);
#300=REPRESENTATION('density',(#296),#546);
#301=DESCRIPTIVE_REPRESENTATION_ITEM('Steel','Steel');
#302=PROPERTY_DEFINITION('material property','material name',#556);
#303=PROPERTY_DEFINITION('material property','density of part',#556);
#304=AXIS2_PLACEMENT_3D('',#429,#339,#340);
#305=AXIS2_PLACEMENT_3D('',#441,#341,#342);
#306=AXIS2_PLACEMENT_3D('',#443,#343,#344);
#307=AXIS2_PLACEMENT_3D('',#445,#345,#346);
#308=AXIS2_PLACEMENT_3D('',#446,#347,#348);
#309=AXIS2_PLACEMENT_3D('',#447,#349,#350);
#310=AXIS2_PLACEMENT_3D('',#450,#351,#352);
#311=AXIS2_PLACEMENT_3D('',#464,#355,#356);
#312=AXIS2_PLACEMENT_3D('',#466,#357,#358);
#313=AXIS2_PLACEMENT_3D('',#468,#359,#360);
#314=AXIS2_PLACEMENT_3D('',#469,#361,#362);
#315=AXIS2_PLACEMENT_3D('',#470,#363,#364);
#316=AXIS2_PLACEMENT_3D('',#473,#365,#366);
#317=AXIS2_PLACEMENT_3D('',#476,#369,#370);
#318=AXIS2_PLACEMENT_3D('',#490,#373,#374);
#319=AXIS2_PLACEMENT_3D('',#492,#375,#376);
#320=AXIS2_PLACEMENT_3D('',#494,#377,#378);
#321=AXIS2_PLACEMENT_3D('',#495,#379,#380);
#322=AXIS2_PLACEMENT_3D('',#496,#381,#382);
#323=AXIS2_PLACEMENT_3D('',#499,#383,#384);
#324=AXIS2_PLACEMENT_3D('',#513,#387,#388);
#325=AXIS2_PLACEMENT_3D('',#515,#389,#390);
#326=AXIS2_PLACEMENT_3D('',#517,#391,#392);
#327=AXIS2_PLACEMENT_3D('',#518,#393,#394);
#328=AXIS2_PLACEMENT_3D('',#519,#395,#396);
#329=AXIS2_PLACEMENT_3D('',#522,#397,#398);
#330=AXIS2_PLACEMENT_3D('',#525,#401,#402);
#331=AXIS2_PLACEMENT_3D('',#528,#405,#406);
#332=AXIS2_PLACEMENT_3D('',#531,#409,#410);
#333=AXIS2_PLACEMENT_3D('',#534,#413,#414);
#334=AXIS2_PLACEMENT_3D('',#536,#416,#417);
#335=AXIS2_PLACEMENT_3D('',#538,#419,#420);
#336=AXIS2_PLACEMENT_3D('',#539,#421,#422);
#337=AXIS2_PLACEMENT_3D('',#541,#424,#425);
#338=AXIS2_PLACEMENT_3D('',#543,#427,#428);
#339=DIRECTION('axis',(0.,0.,1.));
#340=DIRECTION('refdir',(1.,0.,0.));
#341=DIRECTION('center_axis',(0.,-1.,0.));
#342=DIRECTION('ref_axis',(1.,0.,0.));
#343=DIRECTION('center_axis',(0.,0.,1.));
#344=DIRECTION('ref_axis',(0.,1.,0.));
#345=DIRECTION('center_axis',(-1.,0.,0.));
#346=DIRECTION('ref_axis',(0.,0.,1.));
#347=DIRECTION('center_axis',(0.,0.,-1.));
#348=DIRECTION('ref_axis',(0.707106781186547,0.707106781186547,0.));
#349=DIRECTION('center_axis',(0.,0.,1.));
#350=DIRECTION('ref_axis',(0.707106781186547,0.707106781186547,0.));
#351=DIRECTION('center_axis',(0.,0.,1.));
#352=DIRECTION('ref_axis',(0.707106781186547,0.707106781186547,0.));
#353=DIRECTION('',(0.,0.,1.));
#354=DIRECTION('',(0.,0.,-1.));
#355=DIRECTION('center_axis',(-1.,0.,0.));
#356=DIRECTION('ref_axis',(0.,-1.,0.));
#357=DIRECTION('center_axis',(0.,0.,1.));
#358=DIRECTION('ref_axis',(1.,0.,0.));
#359=DIRECTION('center_axis',(0.,1.,0.));
#360=DIRECTION('ref_axis',(0.,0.,1.));
#361=DIRECTION('center_axis',(0.,0.,-1.));
#362=DIRECTION('ref_axis',(0.707106781186546,-0.707106781186549,0.));
#363=DIRECTION('center_axis',(0.,0.,1.));
#364=DIRECTION('ref_axis',(0.707106781186547,-0.707106781186547,0.));
#365=DIRECTION('center_axis',(0.,0.,1.));
#366=DIRECTION('ref_axis',(0.707106781186547,-0.707106781186547,0.));
#367=DIRECTION('',(0.,0.,1.));
#368=DIRECTION('',(0.,0.,-1.));
#369=DIRECTION('center_axis',(0.,1.,0.));
#370=DIRECTION('ref_axis',(0.707106781186547,0.,0.707106781186547));
#371=DIRECTION('',(0.,-1.,0.));
#372=DIRECTION('',(0.,1.,0.));
#373=DIRECTION('center_axis',(1.,0.,0.));
#374=DIRECTION('ref_axis',(0.,1.,0.));
#375=DIRECTION('center_axis',(0.,0.,1.));
#376=DIRECTION('ref_axis',(-1.,0.,0.));
#377=DIRECTION('center_axis',(0.,-1.,0.));
#378=DIRECTION('ref_axis',(0.,0.,1.));
#379=DIRECTION('center_axis',(0.,0.,-1.));
#380=DIRECTION('ref_axis',(-0.707106781186547,0.707106781186547,0.));
#381=DIRECTION('center_axis',(0.,0.,1.));
#382=DIRECTION('ref_axis',(-0.707106781186547,0.707106781186547,0.));
#383=DIRECTION('center_axis',(0.,0.,1.));
#384=DIRECTION('ref_axis',(-0.707106781186547,0.707106781186547,0.));
#385=DIRECTION('',(0.,0.,1.));
#386=DIRECTION('',(0.,0.,-1.));
#387=DIRECTION('center_axis',(0.,1.,0.));
#388=DIRECTION('ref_axis',(-1.,0.,0.));
#389=DIRECTION('center_axis',(0.,0.,1.));
#390=DIRECTION('ref_axis',(0.,-1.,0.));
#391=DIRECTION('center_axis',(1.,0.,0.));
#392=DIRECTION('ref_axis',(0.,0.,1.));
#393=DIRECTION('center_axis',(0.,0.,-1.));
#394=DIRECTION('ref_axis',(-0.707106781186547,-0.707106781186547,0.));
#395=DIRECTION('center_axis',(0.,0.,1.));
#396=DIRECTION('ref_axis',(-0.707106781186547,-0.707106781186547,0.));
#397=DIRECTION('center_axis',(0.,0.,1.));
#398=DIRECTION('ref_axis',(-0.707106781186547,-0.707106781186547,0.));
#399=DIRECTION('',(0.,0.,1.));
#400=DIRECTION('',(0.,0.,-1.));
#401=DIRECTION('center_axis',(1.,0.,0.));
#402=DIRECTION('ref_axis',(0.,-0.707106781186547,0.707106781186547));
#403=DIRECTION('',(-1.,0.,0.));
#404=DIRECTION('',(1.,0.,0.));
#405=DIRECTION('center_axis',(-1.1842378929335E-16,-1.,0.));
#406=DIRECTION('ref_axis',(-0.707106781186547,0.,0.707106781186547));
#407=DIRECTION('',(1.1842378929335E-16,1.,0.));
#408=DIRECTION('',(-1.1842378929335E-16,-1.,0.));
#409=DIRECTION('center_axis',(-1.,5.9211894646675E-17,0.));
#410=DIRECTION('ref_axis',(0.,0.707106781186547,0.707106781186547));
#411=DIRECTION('',(1.,-5.9211894646675E-17,0.));
#412=DIRECTION('',(-1.,5.9211894646675E-17,0.));
#413=DIRECTION('center_axis',(1.,0.,0.));
#414=DIRECTION('ref_axis',(0.,1.,0.));
#415=DIRECTION('',(0.,1.,0.));
#416=DIRECTION('center_axis',(0.,-1.,0.));
#417=DIRECTION('ref_axis',(1.,0.,0.));
#418=DIRECTION('',(1.,0.,0.));
#419=DIRECTION('center_axis',(0.,0.,1.));
#420=DIRECTION('ref_axis',(1.,0.,0.));
#421=DIRECTION('center_axis',(-1.,1.1842378929335E-16,0.));
#422=DIRECTION('ref_axis',(-1.1842378929335E-16,-1.,0.));
#423=DIRECTION('',(-1.1842378929335E-16,-1.,0.));
#424=DIRECTION('center_axis',(5.9211894646675E-17,1.,0.));
#425=DIRECTION('ref_axis',(-1.,5.9211894646675E-17,0.));
#426=DIRECTION('',(-1.,5.9211894646675E-17,0.));
#427=DIRECTION('center_axis',(0.,0.,1.));
#428=DIRECTION('ref_axis',(1.,0.,0.));
#429=CARTESIAN_POINT('',(0.,0.,0.));
#430=CARTESIAN_POINT('Ctrl Pts',(75.,65.,5.));
#431=CARTESIAN_POINT('Ctrl Pts',(75.,75.,5.));
#432=CARTESIAN_POINT('Ctrl Pts',(65.,75.,5.));
#433=CARTESIAN_POINT('Ctrl Pts',(75.,65.,10.));
#434=CARTESIAN_POINT('Ctrl Pts',(75.,75.,10.));
#435=CARTESIAN_POINT('Ctrl Pts',(65.,75.,10.));
#436=CARTESIAN_POINT('Ctrl Pts',(70.,65.,10.));
#437=CARTESIAN_POINT('Ctrl Pts',(70.,70.,10.));
#438=CARTESIAN_POINT('Ctrl Pts',(65.,70.,10.));
#439=CARTESIAN_POINT('',(75.,65.,5.));
#440=CARTESIAN_POINT('',(70.,65.,10.));
#441=CARTESIAN_POINT('Origin',(70.,65.,5.));
#442=CARTESIAN_POINT('',(65.,75.,5.));
#443=CARTESIAN_POINT('Origin',(65.,65.,5.));
#444=CARTESIAN_POINT('',(65.,70.,10.));
#445=CARTESIAN_POINT('Origin',(65.,70.,5.));
#446=CARTESIAN_POINT('Origin',(65.,65.,10.));
#447=CARTESIAN_POINT('Origin',(65.,65.,0.));
#448=CARTESIAN_POINT('',(75.,65.,0.));
#449=CARTESIAN_POINT('',(65.,75.,0.));
#450=CARTESIAN_POINT('Origin',(65.,65.,0.));
#451=CARTESIAN_POINT('',(65.,75.,0.));
#452=CARTESIAN_POINT('',(75.,65.,0.));
#453=CARTESIAN_POINT('Ctrl Pts',(65.,-75.,5.));
#454=CARTESIAN_POINT('Ctrl Pts',(75.,-75.,5.));
#455=CARTESIAN_POINT('Ctrl Pts',(75.,-65.,5.));
#456=CARTESIAN_POINT('Ctrl Pts',(65.,-75.,10.));
#457=CARTESIAN_POINT('Ctrl Pts',(75.,-75.,10.));
#458=CARTESIAN_POINT('Ctrl Pts',(75.,-65.,10.));
#459=CARTESIAN_POINT('Ctrl Pts',(65.,-70.,10.));
#460=CARTESIAN_POINT('Ctrl Pts',(70.,-70.,10.));
#461=CARTESIAN_POINT('Ctrl Pts',(70.,-65.,10.));
#462=CARTESIAN_POINT('',(65.,-75.,5.));
#463=CARTESIAN_POINT('',(65.,-70.,10.));
#464=CARTESIAN_POINT('Origin',(65.,-70.,5.));
#465=CARTESIAN_POINT('',(75.,-65.,5.));
#466=CARTESIAN_POINT('Origin',(65.,-65.,5.));
#467=CARTESIAN_POINT('',(70.,-65.,10.));
#468=CARTESIAN_POINT('Origin',(70.,-65.,5.));
#469=CARTESIAN_POINT('Origin',(65.,-65.,10.));
#470=CARTESIAN_POINT('Origin',(65.,-65.,0.));
#471=CARTESIAN_POINT('',(65.,-75.,0.));
#472=CARTESIAN_POINT('',(75.,-65.,0.));
#473=CARTESIAN_POINT('Origin',(65.,-65.,0.));
#474=CARTESIAN_POINT('',(75.,-65.,0.));
#475=CARTESIAN_POINT('',(65.,-75.,0.));
#476=CARTESIAN_POINT('Origin',(70.,-37.5,5.));
#477=CARTESIAN_POINT('',(70.,-37.5,10.));
#478=CARTESIAN_POINT('',(75.,-37.5,5.));
#479=CARTESIAN_POINT('Ctrl Pts',(-65.,75.,5.));
#480=CARTESIAN_POINT('Ctrl Pts',(-75.,75.,5.));
#481=CARTESIAN_POINT('Ctrl Pts',(-75.,65.,5.));
#482=CARTESIAN_POINT('Ctrl Pts',(-65.,75.,10.));
#483=CARTESIAN_POINT('Ctrl Pts',(-75.,75.,10.));
#484=CARTESIAN_POINT('Ctrl Pts',(-75.,65.,10.));
#485=CARTESIAN_POINT('Ctrl Pts',(-65.,70.,9.99999999999999));
#486=CARTESIAN_POINT('Ctrl Pts',(-70.,70.,9.99999999999999));
#487=CARTESIAN_POINT('Ctrl Pts',(-70.,65.,9.99999999999999));
#488=CARTESIAN_POINT('',(-65.,75.,5.));
#489=CARTESIAN_POINT('',(-65.,70.,10.));
#490=CARTESIAN_POINT('Origin',(-65.,70.,5.));
#491=CARTESIAN_POINT('',(-75.,65.,5.));
#492=CARTESIAN_POINT('Origin',(-65.,65.,5.));
#493=CARTESIAN_POINT('',(-70.,65.,10.));
#494=CARTESIAN_POINT('Origin',(-70.,65.,5.));
#495=CARTESIAN_POINT('Origin',(-65.,65.,10.));
#496=CARTESIAN_POINT('Origin',(-65.,65.,0.));
#497=CARTESIAN_POINT('',(-65.,75.,0.));
#498=CARTESIAN_POINT('',(-75.,65.,0.));
#499=CARTESIAN_POINT('Origin',(-65.,65.,0.));
#500=CARTESIAN_POINT('',(-75.,65.,0.));
#501=CARTESIAN_POINT('',(-65.,75.,0.));
#502=CARTESIAN_POINT('Ctrl Pts',(-75.,-65.,5.));
#503=CARTESIAN_POINT('Ctrl Pts',(-75.,-75.,5.));
#504=CARTESIAN_POINT('Ctrl Pts',(-65.,-75.,5.));
#505=CARTESIAN_POINT('Ctrl Pts',(-75.,-65.,10.));
#506=CARTESIAN_POINT('Ctrl Pts',(-75.,-75.,10.));
#507=CARTESIAN_POINT('Ctrl Pts',(-65.,-75.,10.));
#508=CARTESIAN_POINT('Ctrl Pts',(-70.,-65.,10.));
#509=CARTESIAN_POINT('Ctrl Pts',(-70.,-70.,10.));
#510=CARTESIAN_POINT('Ctrl Pts',(-65.,-70.,10.));
#511=CARTESIAN_POINT('',(-75.,-65.,5.));
#512=CARTESIAN_POINT('',(-70.,-65.,10.));
#513=CARTESIAN_POINT('Origin',(-70.,-65.,5.));
#514=CARTESIAN_POINT('',(-65.,-75.,5.));
#515=CARTESIAN_POINT('Origin',(-65.,-65.,5.));
#516=CARTESIAN_POINT('',(-65.,-70.,10.));
#517=CARTESIAN_POINT('Origin',(-65.,-70.,5.));
#518=CARTESIAN_POINT('Origin',(-65.,-65.,10.));
#519=CARTESIAN_POINT('Origin',(-65.,-65.,0.));
#520=CARTESIAN_POINT('',(-75.,-65.,0.));
#521=CARTESIAN_POINT('',(-65.,-75.,0.));
#522=CARTESIAN_POINT('Origin',(-65.,-65.,0.));
#523=CARTESIAN_POINT('',(-65.,-75.,0.));
#524=CARTESIAN_POINT('',(-75.,-65.,0.));
#525=CARTESIAN_POINT('Origin',(-37.5,-70.,5.));
#526=CARTESIAN_POINT('',(-37.5,-70.,10.));
#527=CARTESIAN_POINT('',(-37.5,-75.,5.));
#528=CARTESIAN_POINT('Origin',(-70.,37.5,5.));
#529=CARTESIAN_POINT('',(-70.,37.5,10.));
#530=CARTESIAN_POINT('',(-75.,37.5,5.));
#531=CARTESIAN_POINT('Origin',(37.5,70.,5.));
#532=CARTESIAN_POINT('',(37.5,70.,10.));
#533=CARTESIAN_POINT('',(37.5,75.,5.));
#534=CARTESIAN_POINT('Origin',(75.,-75.,0.));
#535=CARTESIAN_POINT('',(75.,-75.,0.));
#536=CARTESIAN_POINT('Origin',(-75.,-75.,0.));
#537=CARTESIAN_POINT('',(-75.,-75.,0.));
#538=CARTESIAN_POINT('Origin',(-8.88178419700125E-15,0.,10.));
#539=CARTESIAN_POINT('Origin',(-75.,75.,0.));
#540=CARTESIAN_POINT('',(-75.,75.,0.));
#541=CARTESIAN_POINT('Origin',(75.,75.,0.));
#542=CARTESIAN_POINT('',(75.,75.,0.));
#543=CARTESIAN_POINT('Origin',(-8.88178419700125E-15,0.,0.));
#544=UNCERTAINTY_MEASURE_WITH_UNIT(LENGTH_MEASURE(0.01),#548,
'DISTANCE_ACCURACY_VALUE',
'Maximum model space distance between geometric entities at asserted c
onnectivities');
#545=UNCERTAINTY_MEASURE_WITH_UNIT(LENGTH_MEASURE(0.01),#548,
'DISTANCE_ACCURACY_VALUE',
'Maximum model space distance between geometric entities at asserted c
onnectivities');
#546=(
GEOMETRIC_REPRESENTATION_CONTEXT(3)
GLOBAL_UNCERTAINTY_ASSIGNED_CONTEXT((#544))
GLOBAL_UNIT_ASSIGNED_CONTEXT((#548,#550,#551))
REPRESENTATION_CONTEXT('','3D')
);
#547=(
GEOMETRIC_REPRESENTATION_CONTEXT(3)
GLOBAL_UNCERTAINTY_ASSIGNED_CONTEXT((#545))
GLOBAL_UNIT_ASSIGNED_CONTEXT((#548,#550,#551))
REPRESENTATION_CONTEXT('','3D')
);
#548=(
LENGTH_UNIT()
NAMED_UNIT(*)
SI_UNIT(.MILLI.,.METRE.)
);
#549=(
LENGTH_UNIT()
NAMED_UNIT(*)
SI_UNIT($,.METRE.)
);
#550=(
NAMED_UNIT(*)
PLANE_ANGLE_UNIT()
SI_UNIT($,.RADIAN.)
);
#551=(
NAMED_UNIT(*)
SI_UNIT($,.STERADIAN.)
SOLID_ANGLE_UNIT()
);
#552=SHAPE_DEFINITION_REPRESENTATION(#553,#554);
#553=PRODUCT_DEFINITION_SHAPE('',$,#556);
#554=SHAPE_REPRESENTATION('',(#304),#546);
#555=PRODUCT_DEFINITION_CONTEXT('part definition',#560,'design');
#556=PRODUCT_DEFINITION('2025-10-23-22-58-56-743','plant_stand',#557,#555);
#557=PRODUCT_DEFINITION_FORMATION('',$,#562);
#558=PRODUCT_RELATED_PRODUCT_CATEGORY('plant_stand','plant_stand',(#562));
#559=APPLICATION_PROTOCOL_DEFINITION('international standard',
'automotive_design',2009,#560);
#560=APPLICATION_CONTEXT(
'Core Data for Automotive Mechanical Design Process');
#561=PRODUCT_CONTEXT('part definition',#560,'mechanical');
#562=PRODUCT('2025-10-23-22-58-56-743','plant_stand',$,(#561));
#563=PRESENTATION_STYLE_ASSIGNMENT((#564));
#564=SURFACE_STYLE_USAGE(.BOTH.,#565);
#565=SURFACE_SIDE_STYLE('',(#566));
#566=SURFACE_STYLE_FILL_AREA(#567);
#567=FILL_AREA_STYLE('Steel - Satin',(#568));
#568=FILL_AREA_STYLE_COLOUR('Steel - Satin',#569);
#569=COLOUR_RGB('Steel - Satin',0.627450980392157,0.627450980392157,0.627450980392157);
ENDSEC;
END-ISO-10303-21;
